999
dxflib 3.7.5.0
  0
SECTION
  2
HEADER
  9
$ACADVER
  1
AC1015
  9
$HANDSEED
  5
FFFF
  9
$DIMADEC
 70
0
  9
$DIMASZ
 40
0.18
  9
$DIMAUNIT
 70
0
  9
$DIMAZIN
 70
0
  9
$DIMDEC
 70
4
  9
$DIMEXE
 40
0.18
  9
$DIMEXO
 40
0.0625
  9
$DIMGAP
 40
0.09
  9
$DIMLUNIT
 70
2
  9
$DIMSCALE
 40
1.0
  9
$DIMTSZ
 40
0.0
  9
$DIMTXT
 40
0.18
  9
$DIMZIN
 70
0
  9
$DWGCODEPAGE
  3
ANSI_1252
  9
$EXTMAX
 10
1000.0
 20
1000.0
 30
0.0
  9
$EXTMIN
 10
0.0
 20
0.0
 30
0.0
  9
$FILLMODE
 70
0
  9
$INSUNITS
 70
0
  9
$LTSCALE
 40
1.0
  9
$MEASUREMENT
 70
0
  9
$PDMODE
 70
2
  9
$PDSIZE
 40
0
  9
$SPLFRAME
 70
1
  0
ENDSEC
  0
SECTION
  2
TABLES
  0
TABLE
  2
VPORT
  5
8
100
AcDbSymbolTable
 70
1
  0
VPORT
  5
30
100
AcDbSymbolTableRecord
100
AcDbViewportTableRecord
  2
*Active
 70
0
 10
0.0
 20
0.0
 11
1.0
 21
1.0
 12
286.3055555555554861
 22
148.5
 13
0.0
 23
0.0
 14
10.0
 24
10.0
 15
10.0
 25
10.0
 16
0.0
 26
0.0
 36
1.0
 17
0.0
 27
0.0
 37
0.0
 40
297.0
 41
1.92798353909465
 42
50.0
 43
0.0
 44
0.0
 50
0.0
 51
0.0
 71
0
 72
100
 73
1
 74
3
 75
1
 76
1
 77
0
 78
0
281
0
 65
1
110
0.0
120
0.0
130
0.0
111
1.0
121
0.0
131
0.0
112
0.0
122
1.0
132
0.0
 79
0
146
0.0
  0
ENDTAB
  0
TABLE
  2
LTYPE
  5
5
100
AcDbSymbolTable
 70
41
  0
LTYPE
  5
16
100
AcDbSymbolTableRecord
100
AcDbLinetypeTableRecord
  2
Continuous
 70
0
  3
Solid line
 72
65
 73
0
 40
0.0
  0
LTYPE
  5
31
100
AcDbSymbolTableRecord
100
AcDbLinetypeTableRecord
  2
ACAD_ISO15W100
 70
0
  3
ISO double-dash triple-dot __ __ . . . __ __ . .
 72
65
 73
10
 40
39.0
 49
12.0
 74
0
 49
-3.0
 74
0
 49
12.0
 74
0
 49
-3.0
 74
0
 49
0.0
 74
0
 49
-3.0
 74
0
 49
0.0
 74
0
 49
-3.0
 74
0
 49
0.0
 74
0
 49
-3.0
 74
0
  0
LTYPE
  5
32
100
AcDbSymbolTableRecord
100
AcDbLinetypeTableRecord
  2
DIVIDE
 70
0
  3
Divide ____ . . ____ . . ____ . . ____ . . ____
 72
65
 73
6
 40
31.75
 49
12.6999999999999993
 74
0
 49
-6.3499999999999996
 74
0
 49
0.0
 74
0
 49
-6.3499999999999996
 74
0
 49
0.0
 74
0
 49
-6.3499999999999996
 74
0
  0
LTYPE
  5
33
100
AcDbSymbolTableRecord
100
AcDbLinetypeTableRecord
  2
ACAD_ISO10W100
 70
0
  3
ISO dash dot __ . __ . __ . __ . __ . __ . __ . 
 72
65
 73
4
 40
18.0
 49
12.0
 74
0
 49
-3.0
 74
0
 49
0.0
 74
0
 49
-3.0
 74
0
  0
LTYPE
  5
34
100
AcDbSymbolTableRecord
100
AcDbLinetypeTableRecord
  2
ACAD_ISO04W100
 70
0
  3
ISO long-dash dot ____ . ____ . ____ . ____ . _
 72
65
 73
4
 40
30.0
 49
24.0
 74
0
 49
-3.0
 74
0
 49
0.0
 74
0
 49
-3.0
 74
0
  0
LTYPE
  5
35
100
AcDbSymbolTableRecord
100
AcDbLinetypeTableRecord
  2
CENTER2
 70
0
  3
Center (.5x) ___ _ ___ _ ___ _ ___ _ ___ _ ___
 72
65
 73
4
 40
28.5750000000000028
 49
19.0500000000000007
 74
0
 49
-3.1749999999999998
 74
0
 49
3.1749999999999998
 74
0
 49
-3.1749999999999998
 74
0
  0
LTYPE
  5
36
100
AcDbSymbolTableRecord
100
AcDbLinetypeTableRecord
  2
ACAD_ISO11W100
 70
0
  3
ISO double-dash dot __ __ . __ __ . __ __ . __ _
 72
65
 73
6
 40
33.0
 49
12.0
 74
0
 49
-3.0
 74
0
 49
12.0
 74
0
 49
-3.0
 74
0
 49
0.0
 74
0
 49
-3.0
 74
0
  0
LTYPE
  5
37
100
AcDbSymbolTableRecord
100
AcDbLinetypeTableRecord
  2
HIDDEN2
 70
0
  3
Hidden (.5x) _ _ _ _ _ _ _ _ _ _ _ _ _ _ _ _ _ 
 72
65
 73
2
 40
4.7624999999999993
 49
3.1749999999999998
 74
0
 49
-1.5874999999999999
 74
0
  0
LTYPE
  5
38
100
AcDbSymbolTableRecord
100
AcDbLinetypeTableRecord
  2
BORDERX2
 70
0
  3
Border (2x) ____  ____  .  ____  ____  .  ___
 72
65
 73
6
 40
88.8999999999999915
 49
25.3999999999999986
 74
0
 49
-12.6999999999999993
 74
0
 49
25.3999999999999986
 74
0
 49
-12.6999999999999993
 74
0
 49
0.0
 74
0
 49
-12.6999999999999993
 74
0
  0
LTYPE
  5
39
100
AcDbSymbolTableRecord
100
AcDbLinetypeTableRecord
  2
ACAD_ISO05W100
 70
0
  3
ISO long-dash double-dot ____ .. ____ .. ____ . 
 72
65
 73
6
 40
33.0
 49
24.0
 74
0
 49
-3.0
 74
0
 49
0.0
 74
0
 49
-3.0
 74
0
 49
0.0
 74
0
 49
-3.0
 74
0
  0
LTYPE
  5
3A
100
AcDbSymbolTableRecord
100
AcDbLinetypeTableRecord
  2
DASHDOTX2
 70
0
  3
Dash dot (2x) ____  .  ____  .  ____  .  ___
 72
65
 73
4
 40
50.7999999999999972
 49
25.3999999999999986
 74
0
 49
-12.6999999999999993
 74
0
 49
0.0
 74
0
 49
-12.6999999999999993
 74
0
  0
LTYPE
  5
3B
100
AcDbSymbolTableRecord
100
AcDbLinetypeTableRecord
  2
HIDDENX2
 70
0
  3
Hidden (2x) ____ ____ ____ ____ ____ ____ ____ 
 72
65
 73
2
 40
19.0499999999999972
 49
12.6999999999999993
 74
0
 49
-6.3499999999999996
 74
0
  0
LTYPE
  5
3C
100
AcDbSymbolTableRecord
100
AcDbLinetypeTableRecord
  2
CENTERX2
 70
0
  3
Center (2x) ________  __  ________  __  _____
 72
65
 73
4
 40
101.6000000000000085
 49
63.5
 74
0
 49
-12.6999999999999993
 74
0
 49
12.6999999999999993
 74
0
 49
-12.6999999999999993
 74
0
  0
LTYPE
  5
3D
100
AcDbSymbolTableRecord
100
AcDbLinetypeTableRecord
  2
BORDER2
 70
0
  3
Border (.5x) __.__.__.__.__.__.__.__.__.__.__.
 72
65
 73
6
 40
22.2249999999999979
 49
6.3499999999999996
 74
0
 49
-3.1749999999999998
 74
0
 49
6.3499999999999996
 74
0
 49
-3.1749999999999998
 74
0
 49
0.0
 74
0
 49
-3.1749999999999998
 74
0
  0
LTYPE
  5
3E
100
AcDbSymbolTableRecord
100
AcDbLinetypeTableRecord
  2
DASHDOT2
 70
0
  3
Dash dot (.5x) _._._._._._._._._._._._._._._.
 72
65
 73
4
 40
12.6999999999999993
 49
6.3499999999999996
 74
0
 49
-3.1749999999999998
 74
0
 49
0.0
 74
0
 49
-3.1749999999999998
 74
0
  0
LTYPE
  5
3F
100
AcDbSymbolTableRecord
100
AcDbLinetypeTableRecord
  2
ACAD_ISO12W100
 70
0
  3
ISO dash double-dot __ . . __ . . __ . . __ . . 
 72
65
 73
6
 40
21.0
 49
12.0
 74
0
 49
-3.0
 74
0
 49
0.0
 74
0
 49
-3.0
 74
0
 49
0.0
 74
0
 49
-3.0
 74
0
  0
LTYPE
  5
40
100
AcDbSymbolTableRecord
100
AcDbLinetypeTableRecord
  2
ACAD_ISO07W100
 70
0
  3
ISO dot . . . . . . . . . . . . . . . . . . . . 
 72
65
 73
2
 40
3.0
 49
0.0
 74
0
 49
-3.0
 74
0
  0
LTYPE
  5
41
100
AcDbSymbolTableRecord
100
AcDbLinetypeTableRecord
  2
HIDDEN
 70
0
  3
Hidden __ __ __ __ __ __ __ __ __ __ __ __ __ __
 72
65
 73
2
 40
9.5249999999999986
 49
6.3499999999999996
 74
0
 49
-3.1749999999999998
 74
0
  0
LTYPE
  5
42
100
AcDbSymbolTableRecord
100
AcDbLinetypeTableRecord
  2
ACAD_ISO06W100
 70
0
  3
ISO long-dash triple-dot ____ ... ____ ... ____
 72
65
 73
8
 40
36.0
 49
24.0
 74
0
 49
-3.0
 74
0
 49
0.0
 74
0
 49
-3.0
 74
0
 49
0.0
 74
0
 49
-3.0
 74
0
 49
0.0
 74
0
 49
-3.0
 74
0
  0
LTYPE
  5
43
100
AcDbSymbolTableRecord
100
AcDbLinetypeTableRecord
  2
CENTER
 70
0
  3
Center ____ _ ____ _ ____ _ ____ _ ____ _ ____
 72
65
 73
4
 40
50.8000000000000043
 49
31.75
 74
0
 49
-6.3499999999999996
 74
0
 49
6.3499999999999996
 74
0
 49
-6.3499999999999996
 74
0
  0
LTYPE
  5
44
100
AcDbSymbolTableRecord
100
AcDbLinetypeTableRecord
  2
DOTX2
 70
0
  3
Dot (2x) .  .  .  .  .  .  .  .  .  .  .  .  .  .
 72
65
 73
2
 40
12.6999999999999993
 49
0.0
 74
0
 49
-12.6999999999999993
 74
0
  0
LTYPE
  5
45
100
AcDbSymbolTableRecord
100
AcDbLinetypeTableRecord
  2
PHANTOM
 70
0
  3
Phantom ______  __  __  ______  __  __  ______ 
 72
65
 73
6
 40
63.5000000000000071
 49
31.75
 74
0
 49
-6.3499999999999996
 74
0
 49
6.3499999999999996
 74
0
 49
-6.3499999999999996
 74
0
 49
6.3499999999999996
 74
0
 49
-6.3499999999999996
 74
0
  0
LTYPE
  5
46
100
AcDbSymbolTableRecord
100
AcDbLinetypeTableRecord
  2
ACAD_ISO08W100
 70
0
  3
ISO long-dash short-dash ____ __ ____ __ ____ _
 72
65
 73
4
 40
36.0
 49
24.0
 74
0
 49
-3.0
 74
0
 49
6.0
 74
0
 49
-3.0
 74
0
  0
LTYPE
  5
47
100
AcDbSymbolTableRecord
100
AcDbLinetypeTableRecord
  2
DASHEDX2
 70
0
  3
Dashed (2x) ____  ____  ____  ____  ____  ___
 72
65
 73
2
 40
38.0999999999999943
 49
25.3999999999999986
 74
0
 49
-12.6999999999999993
 74
0
  0
LTYPE
  5
48
100
AcDbSymbolTableRecord
100
AcDbLinetypeTableRecord
  2
ACAD_ISO02W100
 70
0
  3
ISO dash __ __ __ __ __ __ __ __ __ __ __ __ __
 72
65
 73
2
 40
15.0
 49
12.0
 74
0
 49
-3.0
 74
0
  0
LTYPE
  5
49
100
AcDbSymbolTableRecord
100
AcDbLinetypeTableRecord
  2
PHANTOM2
 70
0
  3
Phantom (.5x) ___ _ _ ___ _ _ ___ _ _ ___ _ _
 72
65
 73
6
 40
31.7500000000000036
 49
15.875
 74
0
 49
-3.1749999999999998
 74
0
 49
3.1749999999999998
 74
0
 49
-3.1749999999999998
 74
0
 49
3.1749999999999998
 74
0
 49
-3.1749999999999998
 74
0
  0
LTYPE
  5
4A
100
AcDbSymbolTableRecord
100
AcDbLinetypeTableRecord
  2
DASHED2
 70
0
  3
Dashed (.5x) _ _ _ _ _ _ _ _ _ _ _ _ _ _ _ _ _ 
 72
65
 73
2
 40
9.5249999999999986
 49
6.3499999999999996
 74
0
 49
-3.1749999999999998
 74
0
  0
LTYPE
  5
4B
100
AcDbSymbolTableRecord
100
AcDbLinetypeTableRecord
  2
ACAD_ISO09W100
 70
0
  3
ISO long-dash double-short-dash ____ __ __ ____
 72
65
 73
6
 40
45.0
 49
24.0
 74
0
 49
-3.0
 74
0
 49
6.0
 74
0
 49
-3.0
 74
0
 49
6.0
 74
0
 49
-3.0
 74
0
  0
LTYPE
  5
4C
100
AcDbSymbolTableRecord
100
AcDbLinetypeTableRecord
  2
ACAD_ISO13W100
 70
0
  3
ISO double-dash double-dot __ __ . . __ __ . . _
 72
65
 73
8
 40
36.0
 49
12.0
 74
0
 49
-3.0
 74
0
 49
12.0
 74
0
 49
-3.0
 74
0
 49
0.0
 74
0
 49
-3.0
 74
0
 49
0.0
 74
0
 49
-3.0
 74
0
  0
LTYPE
  5
4D
100
AcDbSymbolTableRecord
100
AcDbLinetypeTableRecord
  2
DOT2
 70
0
  3
Dot (.5x) ........................................
 72
65
 73
2
 40
3.1749999999999998
 49
0.0
 74
0
 49
-3.1749999999999998
 74
0
  0
LTYPE
  5
4E
100
AcDbSymbolTableRecord
100
AcDbLinetypeTableRecord
  2
DASHED
 70
0
  3
Dashed __ __ __ __ __ __ __ __ __ __ __ __ __ _
 72
65
 73
2
 40
19.0499999999999972
 49
12.6999999999999993
 74
0
 49
-6.3499999999999996
 74
0
  0
LTYPE
  5
4F
100
AcDbSymbolTableRecord
100
AcDbLinetypeTableRecord
  2
ACAD_ISO14W100
 70
0
  3
ISO dash triple-dot __ . . . __ . . . __ . . . _
 72
65
 73
8
 40
24.0
 49
12.0
 74
0
 49
-3.0
 74
0
 49
0.0
 74
0
 49
-3.0
 74
0
 49
0.0
 74
0
 49
-3.0
 74
0
 49
0.0
 74
0
 49
-3.0
 74
0
  0
LTYPE
  5
15
100
AcDbSymbolTableRecord
100
AcDbLinetypeTableRecord
  2
BYLAYER
 70
0
  3

 72
65
 73
0
 40
0.0
  0
LTYPE
  5
50
100
AcDbSymbolTableRecord
100
AcDbLinetypeTableRecord
  2
PHANTOMX2
 70
0
  3
Phantom (2x) ____________    ____    ____   _
 72
65
 73
6
 40
127.0000000000000142
 49
63.5
 74
0
 49
-12.6999999999999993
 74
0
 49
12.6999999999999993
 74
0
 49
-12.6999999999999993
 74
0
 49
12.6999999999999993
 74
0
 49
-12.6999999999999993
 74
0
  0
LTYPE
  5
14
100
AcDbSymbolTableRecord
100
AcDbLinetypeTableRecord
  2
BYBLOCK
 70
0
  3

 72
65
 73
0
 40
0.0
  0
LTYPE
  5
51
100
AcDbSymbolTableRecord
100
AcDbLinetypeTableRecord
  2
DIVIDEX2
 70
0
  3
Divide (2x) ________  .  .  ________  .  .  _
 72
65
 73
6
 40
63.5
 49
25.3999999999999986
 74
0
 49
-12.6999999999999993
 74
0
 49
0.0
 74
0
 49
-12.6999999999999993
 74
0
 49
0.0
 74
0
 49
-12.6999999999999993
 74
0
  0
LTYPE
  5
52
100
AcDbSymbolTableRecord
100
AcDbLinetypeTableRecord
  2
BORDER
 70
0
  3
Border __ __ . __ __ . __ __ . __ __ . __ __ .
 72
65
 73
6
 40
44.4499999999999957
 49
12.6999999999999993
 74
0
 49
-6.3499999999999996
 74
0
 49
12.6999999999999993
 74
0
 49
-6.3499999999999996
 74
0
 49
0.0
 74
0
 49
-6.3499999999999996
 74
0
  0
LTYPE
  5
53
100
AcDbSymbolTableRecord
100
AcDbLinetypeTableRecord
  2
DIVIDE2
 70
0
  3
Divide (.5x) __..__..__..__..__..__..__..__.._
 72
65
 73
6
 40
15.875
 49
6.3499999999999996
 74
0
 49
-3.1749999999999998
 74
0
 49
0.0
 74
0
 49
-3.1749999999999998
 74
0
 49
0.0
 74
0
 49
-3.1749999999999998
 74
0
  0
LTYPE
  5
54
100
AcDbSymbolTableRecord
100
AcDbLinetypeTableRecord
  2
DOT
 70
0
  3
Dot . . . . . . . . . . . . . . . . . . . . . . . .
 72
65
 73
2
 40
6.3499999999999996
 49
0.0
 74
0
 49
-6.3499999999999996
 74
0
  0
LTYPE
  5
55
100
AcDbSymbolTableRecord
100
AcDbLinetypeTableRecord
  2
DASHDOT
 70
0
  3
Dash dot __ . __ . __ . __ . __ . __ . __ . __
 72
65
 73
4
 40
25.3999999999999986
 49
12.6999999999999993
 74
0
 49
-6.3499999999999996
 74
0
 49
0.0
 74
0
 49
-6.3499999999999996
 74
0
  0
LTYPE
  5
56
100
AcDbSymbolTableRecord
100
AcDbLinetypeTableRecord
  2
ACAD_ISO03W100
 70
0
  3
ISO dash space __    __    __    __    __    __
 72
65
 73
2
 40
30.0
 49
12.0
 74
0
 49
-18.0
 74
0
  0
ENDTAB
  0
TABLE
  2
LAYER
  5
2
100
AcDbSymbolTable
 70
1
  0
LAYER
  5
10
100
AcDbSymbolTableRecord
100
AcDbLayerTableRecord
  2
0
 70
0
 62
7
420
16777215
  6
Continuous
370
5
390
F
  0
ENDTAB
  0
TABLE
  2
STYLE
  5
3
100
AcDbSymbolTable
 70
1
  0
STYLE
  5
57
100
AcDbSymbolTableRecord
100
AcDbTextStyleTableRecord
  2
Standard
 70
0
 40
0.0
 41
1.0
 50
0.0
 71
0
 42
2.5
  3

  4

1001
ACAD
1000
txt
1071
0
  0
ENDTAB
  0
TABLE
  2
VIEW
  5
6
100
AcDbSymbolTable
 70
0
  0
ENDTAB
  0
TABLE
  2
UCS
  5
7
100
AcDbSymbolTable
 70
0
  0
ENDTAB
  0
TABLE
  2
APPID
  5
9
100
AcDbSymbolTable
 70
1
  0
APPID
  5
12
100
AcDbSymbolTableRecord
100
AcDbRegAppTableRecord
  2
ACAD
 70
0
  0
APPID
  5
58
100
AcDbSymbolTableRecord
100
AcDbRegAppTableRecord
  2
QCAD
 70
0
  0
ENDTAB
  0
TABLE
  2
DIMSTYLE
  5
A
100
AcDbSymbolTable
 70
1
100
AcDbDimStyleTable
 71
0
  0
DIMSTYLE
105
27
100
AcDbSymbolTableRecord
100
AcDbDimStyleTableRecord
  2
Standard
 41
0.18
 42
0.0625
 43
3.75
 44
0.18
 70
0
 73
0
 74
0
 77
1
 78
8
140
0.18
141
2.5
143
0.03937007874016
147
0.09
171
3
172
1
271
2
272
2
274
3
278
44
283
0
284
8
340
57
  0
ENDTAB
  0
TABLE
  2
BLOCK_RECORD
  5
1
100
AcDbSymbolTable
 70
1
  0
BLOCK_RECORD
  5
1F
100
AcDbSymbolTableRecord
100
AcDbBlockTableRecord
  2
*Model_Space
340
22
  0
BLOCK_RECORD
  5
1B
100
AcDbSymbolTableRecord
100
AcDbBlockTableRecord
  2
*Paper_Space
340
1E
  0
BLOCK_RECORD
  5
23
100
AcDbSymbolTableRecord
100
AcDbBlockTableRecord
  2
*Paper_Space0
340
26
  0
ENDTAB
  0
ENDSEC
  0
SECTION
  2
BLOCKS
  0
BLOCK
  5
20
100
AcDbEntity
  8
0
100
AcDbBlockBegin
  2
*Model_Space
 70
0
 10
0.0
 20
0.0
 30
0.0
  3
*Model_Space
  1

  0
ENDBLK
  5
21
100
AcDbEntity
  8
0
100
AcDbBlockEnd
  0
BLOCK
  5
1C
100
AcDbEntity
 67
1
  8
0
100
AcDbBlockBegin
  2
*Paper_Space
 70
0
 10
0.0
 20
0.0
 30
0.0
  3
*Paper_Space
  1

  0
ENDBLK
  5
1D
100
AcDbEntity
 67
1
  8
0
100
AcDbBlockEnd
  0
BLOCK
  5
24
100
AcDbEntity
  8
0
100
AcDbBlockBegin
  2
*Paper_Space0
 70
0
 10
0.0
 20
0.0
 30
0.0
  3
*Paper_Space0
  1

  0
ENDBLK
  5
25
100
AcDbEntity
  8
0
100
AcDbBlockEnd
  0
ENDSEC
  0
SECTION
  2
ENTITIES
  0
LWPOLYLINE
  5
59
  8
0
 62
256
370
-1
 48
1.0
  6
BYLAYER
100
AcDbEntity
100
AcDbPolyline
 90
2
 70
0
 10
21.495000000000001
 20
2.17828
 30
0.0
 10
22.0407000000000011
 20
2.17828
 30
0.0
  0
LWPOLYLINE
  5
5A
  8
0
 62
1
420
16711680
370
-1
 48
1.0
  6
BYLAYER
100
AcDbEntity
100
AcDbPolyline
 90
2
 70
0
 10
21.495000000000001
 20
1.8091900000000001
 30
0.0
 10
22.0407000000000011
 20
1.8091900000000001
 30
0.0
  0
LWPOLYLINE
  5
5B
  8
0
 62
256
370
-1
 48
1.0
  6
BYLAYER
100
AcDbEntity
100
AcDbPolyline
 90
10
 70
1
 10
22.3140000000000001
 20
2.15761
 30
0.0
 10
22.3405999999999985
 20
2.1734399999999998
 30
0.0
 10
22.5089000000000006
 20
2.0767600000000002
 30
0.0
 10
22.5052999999999983
 20
2.0753599999999999
 30
0.0
 10
22.4775999999999989
 20
2.06819
 30
0.0
 10
22.4684999999999988
 20
2.06819
 30
0.0
 10
22.4643000000000015
 20
2.06819
 30
0.0
 10
22.4531999999999989
 20
2.0693299999999999
 30
0.0
 10
22.4517999999999986
 20
2.0695600000000001
 30
0.0
 10
22.3140000000000001
 20
2.15761
 30
0.0
  0
LWPOLYLINE
  5
5C
  8
0
 62
256
370
-1
 48
1.0
  6
BYLAYER
100
AcDbEntity
100
AcDbPolyline
 90
13
 70
1
 10
22.3021999999999991
 20
2.1701899999999998
 30
0.0
 10
22.3043000000000013
 20
2.1701899999999998
 30
0.0
 10
22.3106000000000009
 20
2.1762600000000001
 30
0.0
 10
22.3106000000000009
 20
2.17828
 30
0.0
 10
22.3106000000000009
 20
2.1803300000000001
 30
0.0
 10
22.3043000000000013
 20
2.1863600000000001
 30
0.0
 10
22.3021999999999991
 20
2.1863600000000001
 30
0.0
 10
22.3001000000000005
 20
2.1863600000000001
 30
0.0
 10
22.2939000000000007
 20
2.1803300000000001
 30
0.0
 10
22.2939000000000007
 20
2.17828
 30
0.0
 10
22.2939000000000007
 20
2.1762600000000001
 30
0.0
 10
22.3001000000000005
 20
2.1701899999999998
 30
0.0
 10
22.3021999999999991
 20
2.1701899999999998
 30
0.0
  0
LWPOLYLINE
  5
5D
  8
0
 62
256
370
-1
 48
1.0
  6
BYLAYER
100
AcDbEntity
100
AcDbPolyline
 90
23
 70
1
 10
22.2271999999999998
 20
2.1216900000000001
 30
0.0
 10
22.1877999999999993
 20
2.0972200000000001
 30
0.0
 10
22.1846999999999994
 20
2.0953200000000001
 30
0.0
 10
22.1696999999999989
 20
2.08188
 30
0.0
 10
22.1696999999999989
 20
2.0773600000000001
 30
0.0
 10
22.1696999999999989
 20
2.0748199999999999
 30
0.0
 10
22.1742999999999988
 20
2.0676000000000001
 30
0.0
 10
22.1753
 20
2.0670000000000002
 30
0.0
 10
22.1761000000000017
 20
2.0664600000000002
 30
0.0
 10
22.1877999999999993
 20
2.0635300000000001
 30
0.0
 10
22.1917000000000009
 20
2.0635300000000001
 30
0.0
 10
22.2028999999999996
 20
2.0635300000000001
 30
0.0
 10
22.2326000000000015
 20
2.0783499999999999
 30
0.0
 10
22.2363
 20
2.08128
 30
0.0
 10
22.2398999999999987
 20
2.0842499999999999
 30
0.0
 10
22.2581999999999987
 20
2.1091500000000001
 30
0.0
 10
22.2581999999999987
 20
2.1173999999999999
 30
0.0
 10
22.2581999999999987
 20
2.1204999999999998
 30
0.0
 10
22.25
 20
2.1297799999999998
 30
0.0
 10
22.2471999999999994
 20
2.1297799999999998
 30
0.0
 10
22.2422000000000004
 20
2.1297799999999998
 30
0.0
 10
22.2293999999999983
 20
2.12304
 30
0.0
 10
22.2271999999999998
 20
2.1216900000000001
 30
0.0
  0
LWPOLYLINE
  5
5E
  8
0
 62
256
370
-1
 48
1.0
  6
BYLAYER
100
AcDbEntity
100
AcDbPolyline
 90
24
 70
1
 10
22.1921999999999997
 20
2.2456700000000001
 30
0.0
 10
22.2007000000000012
 20
2.2415400000000001
 30
0.0
 10
22.2026000000000003
 20
2.2406700000000002
 30
0.0
 10
22.2149999999999999
 20
2.2362199999999999
 30
0.0
 10
22.2190000000000012
 20
2.2362199999999999
 30
0.0
 10
22.2216999999999985
 20
2.2362199999999999
 30
0.0
 10
22.2293999999999983
 20
2.2410399999999999
 30
0.0
 10
22.2329000000000008
 20
2.2519
 30
0.0
 10
22.2329000000000008
 20
2.25549
 30
0.0
 10
22.2329000000000008
 20
2.2619899999999999
 30
0.0
 10
22.2222000000000008
 20
2.2794599999999998
 30
0.0
 10
22.2200999999999986
 20
2.2814199999999998
 30
0.0
 10
22.2180999999999997
 20
2.28342
 30
0.0
 10
22.1984999999999992
 20
2.2933500000000002
 30
0.0
 10
22.1920999999999999
 20
2.2933500000000002
 30
0.0
 10
22.1880999999999986
 20
2.2933500000000002
 30
0.0
 10
22.1773999999999987
 20
2.28803
 30
0.0
 10
22.176400000000001
 20
2.28694
 30
0.0
 10
22.1751000000000005
 20
2.28592
 30
0.0
 10
22.1696999999999989
 20
2.2753299999999999
 30
0.0
 10
22.1696999999999989
 20
2.2718099999999999
 30
0.0
 10
22.1696999999999989
 20
2.2653099999999999
 30
0.0
 10
22.1885000000000012
 20
2.2476099999999999
 30
0.0
 10
22.1921999999999997
 20
2.2456700000000001
 30
0.0
  0
LWPOLYLINE
  5
5F
  8
0
 62
256
370
-1
 48
1.0
  6
BYLAYER
100
AcDbEntity
100
AcDbPolyline
 90
43
 70
1
 10
22.2581999999999987
 20
2.1684600000000001
 30
0.0
 10
22.4525000000000006
 20
2.2897099999999999
 30
0.0
 10
22.4532999999999987
 20
2.2898200000000002
 30
0.0
 10
22.4597000000000016
 20
2.2904200000000001
 30
0.0
 10
22.4619
 20
2.2904200000000001
 30
0.0
 10
22.4736000000000011
 20
2.2904200000000001
 30
0.0
 10
22.504999999999999
 20
2.2825600000000001
 30
0.0
 10
22.5089000000000006
 20
2.2809300000000001
 30
0.0
 10
22.3023999999999987
 20
2.1610800000000001
 30
0.0
 10
22.3006999999999991
 20
2.1601499999999998
 30
0.0
 10
22.2896999999999998
 20
2.15429
 30
0.0
 10
22.2890000000000015
 20
2.1540300000000001
 30
0.0
 10
22.2852999999999994
 20
2.1526700000000001
 30
0.0
 10
22.2828000000000017
 20
2.1517499999999998
 30
0.0
 10
22.2706000000000017
 20
2.1375799999999998
 30
0.0
 10
22.2706000000000017
 20
2.13286
 30
0.0
 10
22.2706000000000017
 20
2.1312899999999999
 30
0.0
 10
22.2708000000000013
 20
2.1270099999999998
 30
0.0
 10
22.2713999999999999
 20
2.1185999999999998
 30
0.0
 10
22.2714999999999996
 20
2.11469
 30
0.0
 10
22.2655999999999992
 20
2.0955400000000002
 30
0.0
 10
22.2505999999999986
 20
2.0768800000000001
 30
0.0
 10
22.2460999999999984
 20
2.0731899999999999
 30
0.0
 10
22.2417000000000016
 20
2.0695000000000001
 30
0.0
 10
22.2030999999999992
 20
2.0510000000000002
 30
0.0
 10
22.1903000000000006
 20
2.0510000000000002
 30
0.0
 10
22.1843000000000004
 20
2.0510000000000002
 30
0.0
 10
22.1676000000000002
 20
2.0572400000000002
 30
0.0
 10
22.1661000000000001
 20
2.0584899999999999
 30
0.0
 10
22.1644000000000005
 20
2.0597400000000001
 30
0.0
 10
22.1567000000000007
 20
2.07308
 30
0.0
 10
22.1567000000000007
 20
2.0775299999999999
 30
0.0
 10
22.1567000000000007
 20
2.0815399999999999
 30
0.0
 10
22.1639000000000017
 20
2.0934699999999999
 30
0.0
 10
22.1811000000000007
 20
2.1079599999999998
 30
0.0
 10
22.1859999999999999
 20
2.1110000000000002
 30
0.0
 10
22.2406000000000006
 20
2.1449699999999998
 30
0.0
 10
22.2436000000000007
 20
2.1468600000000002
 30
0.0
 10
22.2585000000000015
 20
2.1605400000000001
 30
0.0
 10
22.2585000000000015
 20
2.1650399999999999
 30
0.0
 10
22.2585000000000015
 20
2.1659000000000002
 30
0.0
 10
22.2581999999999987
 20
2.1680799999999998
 30
0.0
 10
22.2581999999999987
 20
2.1684600000000001
 30
0.0
  0
LWPOLYLINE
  5
60
  8
0
 62
256
370
-1
 48
1.0
  6
BYLAYER
100
AcDbEntity
100
AcDbPolyline
 90
37
 70
1
 10
22.2936000000000014
 20
2.20079
 30
0.0
 10
22.2693000000000012
 20
2.1859899999999999
 30
0.0
 10
22.2563999999999993
 20
2.19374
 30
0.0
 10
22.2558000000000007
 20
2.1954699999999998
 30
0.0
 10
22.2361000000000004
 20
2.2113700000000001
 30
0.0
 10
22.2329000000000008
 20
2.2128299999999999
 30
0.0
 10
22.1970999999999989
 20
2.2284600000000001
 30
0.0
 10
22.1903000000000006
 20
2.2314400000000001
 30
0.0
 10
22.1666999999999987
 20
2.2483200000000001
 30
0.0
 10
22.1567000000000007
 20
2.2663899999999999
 30
0.0
 10
22.1567000000000007
 20
2.2723499999999999
 30
0.0
 10
22.1567000000000007
 20
2.27826
 30
0.0
 10
22.1652999999999984
 20
2.2943199999999999
 30
0.0
 10
22.1671000000000014
 20
2.2959000000000001
 30
0.0
 10
22.1688000000000009
 20
2.2975300000000001
 30
0.0
 10
22.186399999999999
 20
2.3054999999999999
 30
0.0
 10
22.1921999999999997
 20
2.3054999999999999
 30
0.0
 10
22.2014999999999993
 20
2.3054999999999999
 30
0.0
 10
22.226700000000001
 20
2.2936299999999998
 30
0.0
 10
22.2293999999999983
 20
2.2912400000000002
 30
0.0
 10
22.2318999999999996
 20
2.2888999999999999
 30
0.0
 10
22.2453000000000003
 20
2.26579
 30
0.0
 10
22.2453000000000003
 20
2.2580800000000001
 30
0.0
 10
22.2453000000000003
 20
2.2557499999999999
 30
0.0
 10
22.2445999999999984
 20
2.2499400000000001
 30
0.0
 10
22.2445999999999984
 20
2.24858
 30
0.0
 10
22.2442999999999991
 20
2.2446299999999999
 30
0.0
 10
22.2442999999999991
 20
2.24403
 30
0.0
 10
22.2439999999999998
 20
2.2402899999999999
 30
0.0
 10
22.2439999999999998
 20
2.2389899999999998
 30
0.0
 10
22.2439999999999998
 20
2.23367
 30
0.0
 10
22.2603000000000009
 20
2.2191200000000002
 30
0.0
 10
22.2636000000000003
 20
2.2176100000000001
 30
0.0
 10
22.2641999999999989
 20
2.21733
 30
0.0
 10
22.2698999999999998
 20
2.2143600000000001
 30
0.0
 10
22.2702999999999989
 20
2.2140300000000002
 30
0.0
 10
22.2936000000000014
 20
2.20079
 30
0.0
  0
LWPOLYLINE
  5
61
  8
0
 62
1
420
16711680
370
-1
 48
1.0
  6
BYLAYER
100
AcDbEntity
100
AcDbPolyline
 90
2
 70
0
 10
22.1982999999999997
 20
1.8091900000000001
 30
0.0
 10
22.5499000000000009
 20
1.8091900000000001
 30
0.0
  0
LWPOLYLINE
  5
62
  8
0
 62
256
370
-1
 48
1.0
  6
BYLAYER
100
AcDbEntity
100
AcDbPolyline
 90
7
 70
0
 10
22.3362000000000016
 20
1.6657500000000001
 30
0.0
 10
22.3519000000000005
 20
1.6798999999999999
 30
0.0
 10
22.3920999999999992
 20
1.7300800000000001
 30
0.0
 10
22.4174000000000007
 20
1.79525
 30
0.0
 10
22.4121999999999986
 20
1.86128
 30
0.0
 10
22.3875999999999991
 20
1.9131899999999999
 30
0.0
 10
22.3764000000000003
 20
1.9280600000000001
 30
0.0
  0
LWPOLYLINE
  5
63
  8
0
 62
256
370
-1
 48
1.0
  6
BYLAYER
100
AcDbEntity
100
AcDbPolyline
 90
4
 70
1
 10
22.4148999999999994
 20
1.9456899999999999
 30
0.0
 10
22.3360999999999983
 20
1.97244
 30
0.0
 10
22.3523999999999994
 20
1.8909
 30
0.0
 10
22.4148999999999994
 20
1.9456899999999999
 30
0.0
  0
LWPOLYLINE
  5
64
  8
0
 62
256
370
-1
 48
1.0
  6
BYLAYER
100
AcDbEntity
100
AcDbPolyline
 90
2
 70
0
 10
3.4758100000000001
 20
2.7011699999999998
 30
0.0
 10
3.4758100000000001
 20
2.5043299999999999
 30
0.0
  0
LWPOLYLINE
  5
65
  8
0
 62
256
370
-1
 48
1.0
  6
BYLAYER
100
AcDbEntity
100
AcDbPolyline
 90
2
 70
0
 10
3.4758100000000001
 20
2.3074599999999998
 30
0.0
 10
3.4758100000000001
 20
2.1106199999999999
 30
0.0
  0
LWPOLYLINE
  5
66
  8
0
 62
256
370
-1
 48
1.0
  6
BYLAYER
100
AcDbEntity
100
AcDbPolyline
 90
2
 70
0
 10
3.4758100000000001
 20
1.9137900000000001
 30
0.0
 10
3.4758100000000001
 20
1.7169000000000001
 30
0.0
  0
LWPOLYLINE
  5
67
  8
0
 62
256
370
-1
 48
1.0
  6
BYLAYER
100
AcDbEntity
100
AcDbPolyline
 90
5
 70
1
 10
15.4757999999999996
 20
3.0615299999999999
 30
0.0
 10
16.341899999999999
 20
3.0615299999999999
 30
0.0
 10
16.341899999999999
 20
3.2597100000000001
 30
0.0
 10
15.4757999999999996
 20
3.2597100000000001
 30
0.0
 10
15.4757999999999996
 20
3.0615299999999999
 30
0.0
  0
LWPOLYLINE
  5
68
  8
0
 62
256
370
-1
 48
1.0
  6
BYLAYER
100
AcDbEntity
100
AcDbPolyline
 90
5
 70
1
 10
9.8315999999999999
 20
3.2597100000000001
 30
0.0
 10
10.6584000000000003
 20
3.2597100000000001
 30
0.0
 10
10.6584000000000003
 20
3.0615299999999999
 30
0.0
 10
9.8315999999999999
 20
3.0615299999999999
 30
0.0
 10
9.8315999999999999
 20
3.2597100000000001
 30
0.0
  0
LWPOLYLINE
  5
69
  8
0
 62
256
370
-1
 48
1.0
  6
BYLAYER
100
AcDbEntity
100
AcDbPolyline
 90
29
 70
1
 10
4.9093999999999998
 20
7.46251
 30
0.0
 10
4.9093999999999998
 20
5.8483099999999997
 30
0.0
 10
4.9093499999999999
 20
5.82531
 30
0.0
 10
4.8907400000000001
 20
5.7562899999999999
 30
0.0
 10
4.8402200000000004
 20
5.6813200000000004
 30
0.0
 10
4.76525
 20
5.6308100000000003
 30
0.0
 10
4.69618
 20
5.61219
 30
0.0
 10
4.6731800000000003
 20
5.6120799999999997
 30
0.0
 10
4.2007399999999997
 20
5.6120799999999997
 30
0.0
 10
4.1776799999999996
 20
5.61219
 30
0.0
 10
4.10867
 20
5.6308100000000003
 30
0.0
 10
4.03369
 20
5.6813200000000004
 30
0.0
 10
3.9831799999999999
 20
5.7562899999999999
 30
0.0
 10
3.9645700000000001
 20
5.82531
 30
0.0
 10
3.9645100000000002
 20
5.8483099999999997
 30
0.0
 10
3.9645100000000002
 20
7.46251
 30
0.0
 10
3.9645700000000001
 20
7.4855700000000001
 30
0.0
 10
3.9831799999999999
 20
7.5545799999999996
 30
0.0
 10
4.03369
 20
7.6295599999999997
 30
0.0
 10
4.10867
 20
7.6800699999999997
 30
0.0
 10
4.1776799999999996
 20
7.6986800000000004
 30
0.0
 10
4.2007399999999997
 20
7.6987399999999999
 30
0.0
 10
4.6731800000000003
 20
7.6987399999999999
 30
0.0
 10
4.69618
 20
7.6986800000000004
 30
0.0
 10
4.76525
 20
7.6800699999999997
 30
0.0
 10
4.8402200000000004
 20
7.6295599999999997
 30
0.0
 10
4.8907400000000001
 20
7.5545799999999996
 30
0.0
 10
4.9093499999999999
 20
7.4855700000000001
 30
0.0
 10
4.9093999999999998
 20
7.46251
 30
0.0
  0
LWPOLYLINE
  5
6A
  8
0
 62
256
370
-1
 48
1.0
  6
BYLAYER
100
AcDbEntity
100
AcDbPolyline
 90
5
 70
1
 10
5.0387399999999998
 20
3.0628700000000002
 30
0.0
 10
4.17258
 20
3.0628700000000002
 30
0.0
 10
4.17258
 20
3.2597100000000001
 30
0.0
 10
5.0387399999999998
 20
3.2597100000000001
 30
0.0
 10
5.0387399999999998
 20
3.0628700000000002
 30
0.0
  0
LWPOLYLINE
  5
6B
  8
0
 62
256
370
-1
 48
1.0
  6
BYLAYER
100
AcDbEntity
100
AcDbPolyline
 90
5
 70
1
 10
6.2114900000000004
 20
4.6266299999999996
 30
0.0
 10
6.2862900000000002
 20
4.6266299999999996
 30
0.0
 10
6.2862900000000002
 20
4.1541899999999998
 30
0.0
 10
6.2114900000000004
 20
4.1541899999999998
 30
0.0
 10
6.2114900000000004
 20
4.6266299999999996
 30
0.0
  0
LWPOLYLINE
  5
6C
  8
0
 62
256
370
-1
 48
1.0
  6
BYLAYER
100
AcDbEntity
100
AcDbPolyline
 90
5
 70
1
 10
7.4591000000000003
 20
3.2597100000000001
 30
0.0
 10
8.3251899999999992
 20
3.2597100000000001
 30
0.0
 10
8.3251899999999992
 20
3.0628700000000002
 30
0.0
 10
7.4591000000000003
 20
3.0628700000000002
 30
0.0
 10
7.4591000000000003
 20
3.2597100000000001
 30
0.0
  0
LWPOLYLINE
  5
6D
  8
0
 62
256
370
-1
 48
1.0
  6
BYLAYER
100
AcDbEntity
100
AcDbPolyline
 90
2
 70
0
 10
19.7036000000000016
 20
4.4728199999999996
 30
0.0
 10
19.7036000000000016
 20
4.2453900000000004
 30
0.0
  0
LWPOLYLINE
  5
6E
  8
0
 62
256
370
-1
 48
1.0
  6
BYLAYER
100
AcDbEntity
100
AcDbPolyline
 90
2
 70
0
 10
19.7036000000000016
 20
4.0179600000000004
 30
0.0
 10
19.7036000000000016
 20
3.79053
 30
0.0
  0
LWPOLYLINE
  5
6F
  8
0
 62
256
370
-1
 48
1.0
  6
BYLAYER
100
AcDbEntity
100
AcDbPolyline
 90
2
 70
0
 10
19.7823999999999991
 20
3.79053
 30
0.0
 10
19.7823999999999991
 20
4.0179600000000004
 30
0.0
  0
LWPOLYLINE
  5
70
  8
0
 62
256
370
-1
 48
1.0
  6
BYLAYER
100
AcDbEntity
100
AcDbPolyline
 90
2
 70
0
 10
19.7823999999999991
 20
4.2453900000000004
 30
0.0
 10
19.7823999999999991
 20
4.4728199999999996
 30
0.0
  0
LWPOLYLINE
  5
71
  8
0
 62
256
370
-1
 48
1.0
  6
BYLAYER
100
AcDbEntity
100
AcDbPolyline
 90
2
 70
0
 10
16.8295999999999992
 20
2.7011699999999998
 30
0.0
 10
16.8295999999999992
 20
2.5043299999999999
 30
0.0
  0
LWPOLYLINE
  5
72
  8
0
 62
256
370
-1
 48
1.0
  6
BYLAYER
100
AcDbEntity
100
AcDbPolyline
 90
2
 70
0
 10
16.8295999999999992
 20
2.3074599999999998
 30
0.0
 10
16.8295999999999992
 20
2.1106199999999999
 30
0.0
  0
LWPOLYLINE
  5
73
  8
0
 62
256
370
-1
 48
1.0
  6
BYLAYER
100
AcDbEntity
100
AcDbPolyline
 90
2
 70
0
 10
16.8295999999999992
 20
1.9137900000000001
 30
0.0
 10
16.8295999999999992
 20
1.7169000000000001
 30
0.0
  0
LWPOLYLINE
  5
74
  8
0
 62
256
370
-1
 48
1.0
  6
BYLAYER
100
AcDbEntity
100
AcDbPolyline
 90
5
 70
1
 10
13.0501000000000005
 20
3.0615299999999999
 30
0.0
 10
12.1838999999999995
 20
3.0615299999999999
 30
0.0
 10
12.1838999999999995
 20
3.2597100000000001
 30
0.0
 10
13.0501000000000005
 20
3.2597100000000001
 30
0.0
 10
13.0501000000000005
 20
3.0615299999999999
 30
0.0
  0
LWPOLYLINE
  5
75
  8
0
 62
256
370
-1
 48
1.0
  6
BYLAYER
100
AcDbEntity
100
AcDbPolyline
 90
5
 70
1
 10
18.7082000000000015
 20
3.2597100000000001
 30
0.0
 10
17.8420999999999985
 20
3.2597100000000001
 30
0.0
 10
17.8420999999999985
 20
3.0628700000000002
 30
0.0
 10
18.7082000000000015
 20
3.0628700000000002
 30
0.0
 10
18.7082000000000015
 20
3.2597100000000001
 30
0.0
  0
LWPOLYLINE
  5
76
  8
0
 62
256
370
-1
 48
1.0
  6
BYLAYER
100
AcDbEntity
100
AcDbPolyline
 90
5
 70
1
 10
16.8295999999999992
 20
2.8414199999999998
 30
0.0
 10
16.7115000000000009
 20
2.8414199999999998
 30
0.0
 10
16.7115000000000009
 20
3.62879
 30
0.0
 10
16.8295999999999992
 20
3.62879
 30
0.0
 10
16.8295999999999992
 20
2.8414199999999998
 30
0.0
  0
LWPOLYLINE
  5
77
  8
0
 62
256
370
-1
 48
1.0
  6
BYLAYER
100
AcDbEntity
100
AcDbPolyline
 90
2
 70
0
 10
8.7784300000000002
 20
2.7316099999999999
 30
0.0
 10
8.7784300000000002
 20
2.5347200000000001
 30
0.0
  0
LWPOLYLINE
  5
78
  8
0
 62
256
370
-1
 48
1.0
  6
BYLAYER
100
AcDbEntity
100
AcDbPolyline
 90
2
 70
0
 10
8.7784300000000002
 20
2.3378899999999998
 30
0.0
 10
8.7784300000000002
 20
2.14106
 30
0.0
  0
LWPOLYLINE
  5
79
  8
0
 62
256
370
-1
 48
1.0
  6
BYLAYER
100
AcDbEntity
100
AcDbPolyline
 90
2
 70
0
 10
8.7784300000000002
 20
1.94417
 30
0.0
 10
8.7784300000000002
 20
1.74735
 30
0.0
  0
LWPOLYLINE
  5
7A
  8
0
 62
256
370
-1
 48
1.0
  6
BYLAYER
100
AcDbEntity
100
AcDbPolyline
 90
5
 70
1
 10
21.6438999999999986
 20
3.0628700000000002
 30
0.0
 10
20.7777999999999992
 20
3.0628700000000002
 30
0.0
 10
20.7777999999999992
 20
3.2597100000000001
 30
0.0
 10
21.6438999999999986
 20
3.2597100000000001
 30
0.0
 10
21.6438999999999986
 20
3.0628700000000002
 30
0.0
  0
LWPOLYLINE
  5
7B
  8
0
 62
256
370
-1
 48
1.0
  6
BYLAYER
100
AcDbEntity
100
AcDbPolyline
 90
41
 70
1
 10
21.8886000000000003
 20
3.5648900000000001
 30
0.0
 10
21.9085000000000001
 20
3.56494
 30
0.0
 10
21.9681999999999995
 20
3.57308
 30
0.0
 10
22.0421000000000014
 20
3.5960299999999998
 30
0.0
 10
22.1088999999999984
 20
3.6322199999999998
 30
0.0
 10
22.1671000000000014
 20
3.68018
 30
0.0
 10
22.2149999999999999
 20
3.7383299999999999
 30
0.0
 10
22.2512000000000008
 20
3.8051200000000001
 30
0.0
 10
22.2742000000000004
 20
3.87907
 30
0.0
 10
22.2823999999999991
 20
3.9386899999999998
 30
0.0
 10
22.2823999999999991
 20
3.9585599999999999
 30
0.0
 10
22.2823999999999991
 20
3.9784600000000001
 30
0.0
 10
22.2742000000000004
 20
4.0380799999999999
 30
0.0
 10
22.2512000000000008
 20
4.1120299999999999
 30
0.0
 10
22.2149999999999999
 20
4.17882
 30
0.0
 10
22.1671000000000014
 20
4.2369700000000003
 30
0.0
 10
22.1088999999999984
 20
4.2849399999999997
 30
0.0
 10
22.0421000000000014
 20
4.32118
 30
0.0
 10
21.9681999999999995
 20
4.3441299999999998
 30
0.0
 10
21.9085000000000001
 20
4.3522100000000004
 30
0.0
 10
21.8886000000000003
 20
4.3522600000000002
 30
0.0
 10
21.8688000000000002
 20
4.3522100000000004
 30
0.0
 10
21.8092000000000006
 20
4.3441299999999998
 30
0.0
 10
21.7350999999999992
 20
4.32118
 30
0.0
 10
21.6682999999999986
 20
4.2849399999999997
 30
0.0
 10
21.6102999999999987
 20
4.2369700000000003
 30
0.0
 10
21.5622000000000007
 20
4.17882
 30
0.0
 10
21.5260999999999996
 20
4.1120299999999999
 30
0.0
 10
21.5030999999999999
 20
4.0380799999999999
 30
0.0
 10
21.495000000000001
 20
3.9784600000000001
 30
0.0
 10
21.495000000000001
 20
3.9585599999999999
 30
0.0
 10
21.495000000000001
 20
3.9386899999999998
 30
0.0
 10
21.5030999999999999
 20
3.87907
 30
0.0
 10
21.5260999999999996
 20
3.8051200000000001
 30
0.0
 10
21.5622000000000007
 20
3.7383299999999999
 30
0.0
 10
21.6102999999999987
 20
3.68018
 30
0.0
 10
21.6682999999999986
 20
3.6322199999999998
 30
0.0
 10
21.7350999999999992
 20
3.5960299999999998
 30
0.0
 10
21.8092000000000006
 20
3.57308
 30
0.0
 10
21.8688000000000002
 20
3.56494
 30
0.0
 10
21.8886000000000003
 20
3.5648900000000001
 30
0.0
  0
LWPOLYLINE
  5
7C
  8
0
 62
256
370
-1
 48
1.0
  6
BYLAYER
100
AcDbEntity
100
AcDbPolyline
 90
2
 70
0
 10
11.7114999999999991
 20
2.7119200000000001
 30
0.0
 10
11.7114999999999991
 20
2.5150800000000002
 30
0.0
  0
LWPOLYLINE
  5
7D
  8
0
 62
256
370
-1
 48
1.0
  6
BYLAYER
100
AcDbEntity
100
AcDbPolyline
 90
2
 70
0
 10
11.7114999999999991
 20
2.31819
 30
0.0
 10
11.7114999999999991
 20
2.1213600000000001
 30
0.0
  0
LWPOLYLINE
  5
7E
  8
0
 62
256
370
-1
 48
1.0
  6
BYLAYER
100
AcDbEntity
100
AcDbPolyline
 90
2
 70
0
 10
11.7114999999999991
 20
1.9244699999999999
 30
0.0
 10
11.7114999999999991
 20
1.7276499999999999
 30
0.0
  0
LWPOLYLINE
  5
7F
  8
0
 62
256
370
-1
 48
1.0
  6
BYLAYER
100
AcDbEntity
100
AcDbPolyline
 90
24
 70
0
 10
3.4758100000000001
 20
4.7656299999999998
 30
0.0
 10
3.6008100000000001
 20
4.7656299999999998
 30
0.0
 10
3.6298900000000001
 20
4.8444000000000003
 30
0.0
 10
3.6298900000000001
 20
5.0412400000000002
 30
0.0
 10
3.5708099999999998
 20
5.1199599999999998
 30
0.0
 10
3.5708099999999998
 20
9.7656299999999998
 30
0.0
 10
3.61415
 20
9.7941699999999994
 30
0.0
 10
3.76112
 20
9.8542799999999993
 30
0.0
 10
3.9645100000000002
 20
9.8837899999999994
 30
0.0
 10
4.1678600000000001
 20
9.8542799999999993
 30
0.0
 10
4.3148299999999997
 20
9.7942199999999993
 30
0.0
 10
4.3582400000000003
 20
9.7656299999999998
 30
0.0
 10
8.0205599999999997
 20
9.7656299999999998
 30
0.0
 10
8.0639199999999995
 20
9.7942199999999993
 30
0.0
 10
8.2108899999999991
 20
9.8542799999999993
 30
0.0
 10
8.4142200000000003
 20
9.8837899999999994
 30
0.0
 10
8.6175700000000006
 20
9.8542799999999993
 30
0.0
 10
8.7645400000000002
 20
9.7942199999999993
 30
0.0
 10
8.8079400000000003
 20
9.7656299999999998
 30
0.0
 10
8.8079400000000003
 20
5.1199599999999998
 30
0.0
 10
8.74892
 20
5.0412400000000002
 30
0.0
 10
8.74892
 20
4.8444000000000003
 30
0.0
 10
8.7784300000000002
 20
4.7656299999999998
 30
0.0
 10
22.6171000000000006
 20
4.7656299999999998
 30
0.0
  0
LWPOLYLINE
  5
80
  8
0
 62
256
370
-1
 48
1.0
  6
BYLAYER
100
AcDbEntity
100
AcDbPolyline
 90
5
 70
1
 10
14.2256
 20
3.5648900000000001
 30
0.0
 10
14.3003
 20
3.5648900000000001
 30
0.0
 10
14.3003
 20
4.3916000000000004
 30
0.0
 10
14.2256
 20
4.3916000000000004
 30
0.0
 10
14.2256
 20
3.5648900000000001
 30
0.0
  0
LWPOLYLINE
  5
81
  8
0
 62
256
370
-1
 48
1.0
  6
BYLAYER
100
AcDbEntity
100
AcDbPolyline
 90
29
 70
1
 10
19.1266999999999996
 20
6.8304
 30
0.0
 10
21.9858000000000011
 20
6.8304
 30
0.0
 10
21.9858000000000011
 20
6.6620600000000003
 30
0.0
 10
22.0843999999999987
 20
6.6620600000000003
 30
0.0
 10
22.0843999999999987
 20
6.24864
 30
0.0
 10
21.9858000000000011
 20
6.24864
 30
0.0
 10
21.9858000000000011
 20
6.0119899999999999
 30
0.0
 10
21.9393999999999991
 20
6.0102500000000001
 30
0.0
 10
21.8005999999999993
 20
5.9946299999999999
 30
0.0
 10
21.6188000000000002
 20
5.9569200000000002
 30
0.0
 10
21.4423999999999992
 20
5.8992500000000003
 30
0.0
 10
21.3140000000000001
 20
5.8438100000000004
 30
0.0
 10
21.2728999999999999
 20
5.8222100000000001
 30
0.0
 10
21.2422000000000004
 20
5.8023100000000003
 30
0.0
 10
21.1565000000000012
 20
5.7323199999999996
 30
0.0
 10
21.0568999999999988
 20
5.6252199999999997
 30
0.0
 10
20.9764000000000017
 20
5.5032500000000004
 30
0.0
 10
20.9285999999999994
 20
5.4034300000000002
 30
0.0
 10
20.9164999999999992
 20
5.3688200000000004
 30
0.0
 10
20.5660999999999987
 20
5.3688200000000004
 30
0.0
 10
20.5660999999999987
 20
5.2497199999999999
 30
0.0
 10
19.7664000000000009
 20
5.2497199999999999
 30
0.0
 10
19.7664000000000009
 20
5.3688200000000004
 30
0.0
 10
19.1266999999999996
 20
5.3688200000000004
 30
0.0
 10
19.1266999999999996
 20
5.6493099999999998
 30
0.0
 10
19.0281999999999982
 20
5.6493099999999998
 30
0.0
 10
19.0281999999999982
 20
6.43668
 30
0.0
 10
19.1266999999999996
 20
6.43668
 30
0.0
 10
19.1266999999999996
 20
6.8304
 30
0.0
  0
LWPOLYLINE
  5
82
  8
0
 62
256
370
-1
 48
1.0
  6
BYLAYER
100
AcDbEntity
100
AcDbPolyline
 90
41
 70
1
 10
13.4895999999999994
 20
6.6369300000000004
 30
0.0
 10
13.4896999999999991
 20
6.6622199999999996
 30
0.0
 10
13.5
 20
6.7379600000000002
 30
0.0
 10
13.5290999999999997
 20
6.8318700000000003
 30
0.0
 10
13.5751000000000008
 20
6.9167199999999998
 30
0.0
 10
13.6359999999999992
 20
6.9905600000000003
 30
0.0
 10
13.7097999999999995
 20
7.0514299999999999
 30
0.0
 10
13.7947000000000006
 20
7.0974399999999997
 30
0.0
 10
13.8886000000000003
 20
7.1265700000000001
 30
0.0
 10
13.9642999999999997
 20
7.13687
 30
0.0
 10
13.9895999999999994
 20
7.1369300000000004
 30
0.0
 10
14.0149000000000008
 20
7.13687
 30
0.0
 10
14.0906000000000002
 20
7.1265700000000001
 30
0.0
 10
14.1845999999999997
 20
7.0974399999999997
 30
0.0
 10
14.2692999999999994
 20
7.0514299999999999
 30
0.0
 10
14.3431999999999995
 20
6.9905600000000003
 30
0.0
 10
14.4039999999999999
 20
6.9167199999999998
 30
0.0
 10
14.4501000000000008
 20
6.8318700000000003
 30
0.0
 10
14.4792000000000005
 20
6.7379600000000002
 30
0.0
 10
14.4895999999999994
 20
6.6622199999999996
 30
0.0
 10
14.4895999999999994
 20
6.6369300000000004
 30
0.0
 10
14.4895999999999994
 20
6.6117100000000004
 30
0.0
 10
14.4792000000000005
 20
6.5359699999999998
 30
0.0
 10
14.4501000000000008
 20
6.4420599999999997
 30
0.0
 10
14.4039999999999999
 20
6.3572100000000002
 30
0.0
 10
14.3431999999999995
 20
6.2833600000000001
 30
0.0
 10
14.2692999999999994
 20
6.2224399999999997
 30
0.0
 10
14.1845999999999997
 20
6.1764299999999999
 30
0.0
 10
14.0906000000000002
 20
6.1472899999999999
 30
0.0
 10
14.0149000000000008
 20
6.1369899999999999
 30
0.0
 10
13.9895999999999994
 20
6.1368799999999997
 30
0.0
 10
13.9642999999999997
 20
6.1369899999999999
 30
0.0
 10
13.8886000000000003
 20
6.1472899999999999
 30
0.0
 10
13.7947000000000006
 20
6.1764299999999999
 30
0.0
 10
13.7097999999999995
 20
6.2224399999999997
 30
0.0
 10
13.6359999999999992
 20
6.2833600000000001
 30
0.0
 10
13.5751000000000008
 20
6.3572100000000002
 30
0.0
 10
13.5290999999999997
 20
6.4420599999999997
 30
0.0
 10
13.5
 20
6.5359699999999998
 30
0.0
 10
13.4896999999999991
 20
6.6117100000000004
 30
0.0
 10
13.4895999999999994
 20
6.6369300000000004
 30
0.0
  0
LWPOLYLINE
  5
83
  8
0
 62
256
370
-1
 48
1.0
  6
BYLAYER
100
AcDbEntity
100
AcDbPolyline
 90
2
 70
0
 10
15.5678000000000001
 20
6.33535
 30
0.0
 10
15.5678000000000001
 20
6.0400400000000003
 30
0.0
  0
LWPOLYLINE
  5
84
  8
0
 62
256
370
-1
 48
1.0
  6
BYLAYER
100
AcDbEntity
100
AcDbPolyline
 90
2
 70
0
 10
12.4114000000000004
 20
6.33535
 30
0.0
 10
12.4114000000000004
 20
6.0400400000000003
 30
0.0
  0
LWPOLYLINE
  5
85
  8
0
 62
256
370
-1
 48
1.0
  6
BYLAYER
100
AcDbEntity
100
AcDbPolyline
 90
41
 70
1
 10
13.4895999999999994
 20
9.0360300000000002
 30
0.0
 10
13.4896999999999991
 20
9.0613100000000006
 30
0.0
 10
13.5
 20
9.1370400000000007
 30
0.0
 10
13.5290999999999997
 20
9.2309599999999996
 30
0.0
 10
13.5751000000000008
 20
9.3158100000000008
 30
0.0
 10
13.6359999999999992
 20
9.3896499999999996
 30
0.0
 10
13.7097999999999995
 20
9.4505300000000005
 30
0.0
 10
13.7947000000000006
 20
9.4965299999999999
 30
0.0
 10
13.8886000000000003
 20
9.5257199999999997
 30
0.0
 10
13.9642999999999997
 20
9.5360300000000002
 30
0.0
 10
13.9895999999999994
 20
9.5360800000000001
 30
0.0
 10
14.0149000000000008
 20
9.5360300000000002
 30
0.0
 10
14.0906000000000002
 20
9.5257199999999997
 30
0.0
 10
14.1845999999999997
 20
9.4965299999999999
 30
0.0
 10
14.2692999999999994
 20
9.4505300000000005
 30
0.0
 10
14.3431999999999995
 20
9.3896499999999996
 30
0.0
 10
14.4039999999999999
 20
9.3158100000000008
 30
0.0
 10
14.4501000000000008
 20
9.2309599999999996
 30
0.0
 10
14.4792000000000005
 20
9.1370400000000007
 30
0.0
 10
14.4895999999999994
 20
9.0613100000000006
 30
0.0
 10
14.4895999999999994
 20
9.0360300000000002
 30
0.0
 10
14.4895999999999994
 20
9.0107900000000001
 30
0.0
 10
14.4792000000000005
 20
8.93506
 30
0.0
 10
14.4501000000000008
 20
8.8411399999999993
 30
0.0
 10
14.4039999999999999
 20
8.7562899999999999
 30
0.0
 10
14.3431999999999995
 20
8.6824600000000007
 30
0.0
 10
14.2692999999999994
 20
8.6215799999999998
 30
0.0
 10
14.1845999999999997
 20
8.5755700000000008
 30
0.0
 10
14.0906000000000002
 20
8.5464400000000005
 30
0.0
 10
14.0149000000000008
 20
8.5361399999999996
 30
0.0
 10
13.9895999999999994
 20
8.5360300000000002
 30
0.0
 10
13.9642999999999997
 20
8.5361399999999996
 30
0.0
 10
13.8886000000000003
 20
8.5464400000000005
 30
0.0
 10
13.7947000000000006
 20
8.5755700000000008
 30
0.0
 10
13.7097999999999995
 20
8.6215799999999998
 30
0.0
 10
13.6359999999999992
 20
8.6824600000000007
 30
0.0
 10
13.5751000000000008
 20
8.7562899999999999
 30
0.0
 10
13.5290999999999997
 20
8.8411399999999993
 30
0.0
 10
13.5
 20
8.93506
 30
0.0
 10
13.4896999999999991
 20
9.0107900000000001
 30
0.0
 10
13.4895999999999994
 20
9.0360300000000002
 30
0.0
  0
LWPOLYLINE
  5
86
  8
0
 62
256
370
-1
 48
1.0
  6
BYLAYER
100
AcDbEntity
100
AcDbPolyline
 90
83
 70
1
 10
10.9641000000000002
 20
6.0827900000000001
 30
0.0
 10
10.9646000000000008
 20
6.0920100000000001
 30
0.0
 10
10.9609000000000005
 20
6.1199000000000003
 30
0.0
 10
10.9481000000000002
 20
6.1541399999999999
 30
0.0
 10
10.9267000000000003
 20
6.1838100000000003
 30
0.0
 10
10.9055
 20
6.2023599999999997
 30
0.0
 10
10.8977000000000004
 20
6.2070800000000004
 30
0.0
 10
10.8867999999999991
 20
6.2135999999999996
 30
0.0
 10
10.8271999999999995
 20
6.22661
 30
0.0
 10
10.7675000000000001
 20
6.2135999999999996
 30
0.0
 10
10.7566000000000006
 20
6.2070800000000004
 30
0.0
 10
10.7486999999999995
 20
6.2023599999999997
 30
0.0
 10
10.7274999999999991
 20
6.1838100000000003
 30
0.0
 10
10.7062000000000008
 20
6.1541399999999999
 30
0.0
 10
10.6934000000000005
 20
6.1199000000000003
 30
0.0
 10
10.6897000000000002
 20
6.0920100000000001
 30
0.0
 10
10.6902000000000008
 20
6.0827900000000001
 30
0.0
 10
10.6614000000000004
 20
6.0899999999999999
 30
0.0
 10
10.5782000000000007
 20
6.1233199999999997
 30
0.0
 10
10.4802999999999997
 20
6.1836000000000002
 30
0.0
 10
10.3978000000000002
 20
6.2606400000000004
 30
0.0
 10
10.3327000000000009
 20
6.3515100000000002
 30
0.0
 10
10.2866
 20
6.4534000000000002
 30
0.0
 10
10.2609999999999992
 20
6.5632599999999996
 30
0.0
 10
10.2578999999999994
 20
6.6782199999999996
 30
0.0
 10
10.2706
 20
6.7669300000000003
 30
0.0
 10
10.2787000000000006
 20
6.7953599999999996
 30
0.0
 10
10.2865000000000002
 20
6.7904200000000001
 30
0.0
 10
10.3124000000000002
 20
6.7796200000000004
 30
0.0
 10
10.3484999999999996
 20
6.7736000000000001
 30
0.0
 10
10.3849
 20
6.7772899999999998
 30
0.0
 10
10.4116
 20
6.7863499999999997
 30
0.0
 10
10.4197000000000006
 20
6.7908099999999996
 30
0.0
 10
10.4276999999999997
 20
6.7953099999999997
 30
0.0
 10
10.4494000000000007
 20
6.8131500000000003
 30
0.0
 10
10.4718
 20
6.8421200000000004
 30
0.0
 10
10.4856999999999996
 20
6.8759199999999998
 30
0.0
 10
10.4902999999999995
 20
6.9036900000000001
 30
0.0
 10
10.4901999999999997
 20
6.9128699999999998
 30
0.0
 10
10.4900000000000002
 20
6.9221500000000002
 30
0.0
 10
10.4845000000000006
 20
6.9497600000000004
 30
0.0
 10
10.4695
 20
6.9831300000000001
 30
0.0
 10
10.4461999999999993
 20
7.0113300000000001
 30
0.0
 10
10.4238999999999997
 20
7.0284899999999997
 30
0.0
 10
10.4158000000000008
 20
7.0326700000000004
 30
0.0
 10
10.4362999999999992
 20
7.0539300000000003
 30
0.0
 10
10.5067000000000004
 20
7.1093200000000003
 30
0.0
 10
10.6079000000000008
 20
7.1640600000000001
 30
0.0
 10
10.7157999999999998
 20
7.1968899999999998
 30
0.0
 10
10.8271999999999995
 20
7.2078499999999996
 30
0.0
 10
10.9384999999999994
 20
7.1968899999999998
 30
0.0
 10
11.0464000000000002
 20
7.1640600000000001
 30
0.0
 10
11.1476000000000006
 20
7.1093200000000003
 30
0.0
 10
11.218
 20
7.0539300000000003
 30
0.0
 10
11.2385999999999999
 20
7.0326700000000004
 30
0.0
 10
11.2303999999999995
 20
7.0284899999999997
 30
0.0
 10
11.2081
 20
7.0113300000000001
 30
0.0
 10
11.1847999999999992
 20
6.9831300000000001
 30
0.0
 10
11.1698000000000004
 20
6.9497600000000004
 30
0.0
 10
11.1643000000000008
 20
6.9221500000000002
 30
0.0
 10
11.1641999999999992
 20
6.9128699999999998
 30
0.0
 10
11.1639999999999997
 20
6.9036900000000001
 30
0.0
 10
11.1685999999999996
 20
6.8759199999999998
 30
0.0
 10
11.1824999999999992
 20
6.8421200000000004
 30
0.0
 10
11.2048000000000005
 20
6.8131500000000003
 30
0.0
 10
11.2265999999999995
 20
6.7952500000000002
 30
0.0
 10
11.2347000000000001
 20
6.7907500000000001
 30
0.0
 10
11.2426999999999992
 20
6.7862900000000002
 30
0.0
 10
11.2693999999999992
 20
6.7772899999999998
 30
0.0
 10
11.3057999999999996
 20
6.7736000000000001
 30
0.0
 10
11.3417999999999992
 20
6.7796200000000004
 30
0.0
 10
11.3678000000000008
 20
6.7903599999999997
 30
0.0
 10
11.3756000000000004
 20
6.7953599999999996
 30
0.0
 10
11.3836999999999993
 20
6.7669300000000003
 30
0.0
 10
11.3963999999999999
 20
6.6782199999999996
 30
0.0
 10
11.3932000000000002
 20
6.5632599999999996
 30
0.0
 10
11.3676999999999992
 20
6.4534000000000002
 30
0.0
 10
11.3215000000000003
 20
6.3515100000000002
 30
0.0
 10
11.2562999999999995
 20
6.26058
 30
0.0
 10
11.1738999999999997
 20
6.1835399999999998
 30
0.0
 10
11.0760000000000005
 20
6.1233199999999997
 30
0.0
 10
10.9928000000000008
 20
6.0899999999999999
 30
0.0
 10
10.9641000000000002
 20
6.0827900000000001
 30
0.0
  0
LWPOLYLINE
  5
87
  8
0
 62
256
370
-1
 48
1.0
  6
BYLAYER
100
AcDbEntity
100
AcDbPolyline
 90
5
 70
1
 10
10.8468
 20
7.8997900000000003
 30
0.0
 10
10.0199999999999996
 20
7.8997900000000003
 30
0.0
 10
10.0199999999999996
 20
7.7816799999999997
 30
0.0
 10
10.8468
 20
7.7816799999999997
 30
0.0
 10
10.8468
 20
7.8997900000000003
 30
0.0
  0
LWPOLYLINE
  5
88
  8
0
 62
256
370
-1
 48
1.0
  6
BYLAYER
100
AcDbEntity
100
AcDbPolyline
 90
71
 70
1
 10
17.2557000000000009
 20
9.5137800000000006
 30
0.0
 10
17.2510000000000012
 20
9.5064600000000006
 30
0.0
 10
17.2331000000000003
 20
9.4868199999999998
 30
0.0
 10
17.2048999999999985
 20
9.4665800000000004
 30
0.0
 10
17.1724999999999994
 20
9.4538899999999995
 30
0.0
 10
17.1463999999999999
 20
9.4494299999999996
 30
0.0
 10
17.1375999999999991
 20
9.4494299999999996
 30
0.0
 10
17.1287999999999982
 20
9.4494299999999996
 30
0.0
 10
17.1025999999999989
 20
9.4538899999999995
 30
0.0
 10
17.0702999999999996
 20
9.4665800000000004
 30
0.0
 10
17.0422000000000011
 20
9.4868199999999998
 30
0.0
 10
17.0242000000000004
 20
9.5064600000000006
 30
0.0
 10
17.019400000000001
 20
9.5137800000000006
 30
0.0
 10
17.0005999999999986
 20
9.5901700000000005
 30
0.0
 10
16.9719000000000015
 20
9.5830099999999998
 30
0.0
 10
16.8887
 20
9.54969
 30
0.0
 10
16.7907000000000011
 20
9.4894200000000009
 30
0.0
 10
16.7083000000000013
 20
9.4123699999999992
 30
0.0
 10
16.6432000000000002
 20
9.3214600000000001
 30
0.0
 10
16.5971000000000011
 20
9.2196099999999994
 30
0.0
 10
16.5715000000000003
 20
9.10975
 30
0.0
 10
16.5683000000000007
 20
8.9947900000000001
 30
0.0
 10
16.5810999999999993
 20
8.9060799999999993
 30
0.0
 10
16.5892000000000017
 20
8.8776100000000007
 30
0.0
 10
16.6648999999999994
 20
8.8994700000000009
 30
0.0
 10
16.6735000000000007
 20
8.8990299999999998
 30
0.0
 10
16.6994000000000007
 20
8.8933300000000006
 30
0.0
 10
16.7311000000000014
 20
8.8790700000000005
 30
0.0
 10
16.7582999999999984
 20
8.8574699999999993
 30
0.0
 10
16.7753000000000014
 20
8.8369700000000009
 30
0.0
 10
16.7795999999999985
 20
8.8293800000000005
 30
0.0
 10
16.7855999999999987
 20
8.81907
 30
0.0
 10
16.7983000000000011
 20
8.7625799999999998
 30
0.0
 10
16.7882999999999996
 20
8.7055100000000003
 30
0.0
 10
16.7829000000000015
 20
8.6948799999999995
 30
0.0
 10
16.7262999999999984
 20
8.6403099999999995
 30
0.0
 10
16.7459999999999987
 20
8.6196800000000007
 30
0.0
 10
16.8140000000000001
 20
8.5657499999999995
 30
0.0
 10
16.9140000000000015
 20
8.5107900000000001
 30
0.0
 10
17.0228999999999999
 20
8.4768299999999996
 30
0.0
 10
17.1088999999999984
 20
8.4651700000000005
 30
0.0
 10
17.1375999999999991
 20
8.4651700000000005
 30
0.0
 10
17.1661999999999999
 20
8.4651700000000005
 30
0.0
 10
17.2521999999999984
 20
8.4768299999999996
 30
0.0
 10
17.3611000000000004
 20
8.5107900000000001
 30
0.0
 10
17.4610999999999983
 20
8.5657499999999995
 30
0.0
 10
17.5291999999999994
 20
8.6196800000000007
 30
0.0
 10
17.5489999999999995
 20
8.6403099999999995
 30
0.0
 10
17.4923999999999999
 20
8.6948799999999995
 30
0.0
 10
17.4867999999999988
 20
8.7055100000000003
 30
0.0
 10
17.4768000000000008
 20
8.7625799999999998
 30
0.0
 10
17.4895999999999994
 20
8.81907
 30
0.0
 10
17.4955999999999996
 20
8.8293800000000005
 30
0.0
 10
17.5
 20
8.8369700000000009
 30
0.0
 10
17.5167999999999999
 20
8.8574699999999993
 30
0.0
 10
17.5440000000000005
 20
8.8790700000000005
 30
0.0
 10
17.5757000000000012
 20
8.8933300000000006
 30
0.0
 10
17.601700000000001
 20
8.8990299999999998
 30
0.0
 10
17.6103999999999985
 20
8.8994700000000009
 30
0.0
 10
17.6860999999999997
 20
8.8776100000000007
 30
0.0
 10
17.6941999999999986
 20
8.9060799999999993
 30
0.0
 10
17.7068000000000012
 20
8.9947900000000001
 30
0.0
 10
17.7038000000000011
 20
9.10975
 30
0.0
 10
17.6782000000000004
 20
9.2196099999999994
 30
0.0
 10
17.6319000000000017
 20
9.3215000000000003
 30
0.0
 10
17.5668000000000006
 20
9.4124300000000005
 30
0.0
 10
17.4844000000000008
 20
9.4894700000000007
 30
0.0
 10
17.3863999999999983
 20
9.54969
 30
0.0
 10
17.3033000000000001
 20
9.5830099999999998
 30
0.0
 10
17.2745999999999995
 20
9.5901700000000005
 30
0.0
 10
17.2557000000000009
 20
9.5137800000000006
 30
0.0
  0
LWPOLYLINE
  5
89
  8
0
 62
256
370
-1
 48
1.0
  6
BYLAYER
100
AcDbEntity
100
AcDbPolyline
 90
7
 70
1
 10
15.5678000000000001
 20
6.5518599999999996
 30
0.0
 10
15.6867999999999999
 20
6.5911900000000001
 30
0.0
 10
15.6867999999999999
 20
9.0902799999999999
 30
0.0
 10
15.5678000000000001
 20
9.1296700000000008
 30
0.0
 10
15.4488000000000003
 20
9.0902799999999999
 30
0.0
 10
15.4488000000000003
 20
6.5911900000000001
 30
0.0
 10
15.5678000000000001
 20
6.5518599999999996
 30
0.0
  0
LWPOLYLINE
  5
8A
  8
0
 62
256
370
-1
 48
1.0
  6
BYLAYER
100
AcDbEntity
100
AcDbPolyline
 90
5
 70
1
 10
13.9761000000000006
 20
7.7816799999999997
 30
0.0
 10
14.8028999999999993
 20
7.7816799999999997
 30
0.0
 10
14.8028999999999993
 20
7.8997900000000003
 30
0.0
 10
13.9761000000000006
 20
7.8997900000000003
 30
0.0
 10
13.9761000000000006
 20
7.7816799999999997
 30
0.0
  0
LWPOLYLINE
  5
8B
  8
0
 62
256
370
-1
 48
1.0
  6
BYLAYER
100
AcDbEntity
100
AcDbPolyline
 90
76
 70
1
 10
17.5985000000000014
 20
6.7734899999999998
 30
0.0
 10
17.5897000000000006
 20
6.77393
 30
0.0
 10
17.5637000000000008
 20
6.7796799999999999
 30
0.0
 10
17.5320999999999998
 20
6.7939400000000001
 30
0.0
 10
17.5048999999999992
 20
6.8155400000000004
 30
0.0
 10
17.4878999999999998
 20
6.8360399999999997
 30
0.0
 10
17.4835999999999991
 20
6.8435800000000002
 30
0.0
 10
17.4775999999999989
 20
6.8539399999999997
 30
0.0
 10
17.4647000000000006
 20
6.9104299999999999
 30
0.0
 10
17.4749000000000017
 20
6.9674399999999999
 30
0.0
 10
17.4802999999999997
 20
6.9780300000000004
 30
0.0
 10
17.5370999999999988
 20
7.0326700000000004
 30
0.0
 10
17.5176000000000016
 20
7.0527899999999999
 30
0.0
 10
17.4516999999999989
 20
7.1055299999999999
 30
0.0
 10
17.3547000000000011
 20
7.1597799999999996
 30
0.0
 10
17.2489999999999988
 20
7.19428
 30
0.0
 10
17.1654000000000018
 20
7.2070800000000004
 30
0.0
 10
17.1375999999999991
 20
7.2076200000000004
 30
0.0
 10
17.1082000000000001
 20
7.2082800000000002
 30
0.0
 10
17.0197000000000003
 20
7.1979199999999999
 30
0.0
 10
16.9074999999999989
 20
7.1645000000000003
 30
0.0
 10
16.8046000000000006
 20
7.109
 30
0.0
 10
16.7346000000000004
 20
7.0538800000000004
 30
0.0
 10
16.7142000000000017
 20
7.0326700000000004
 30
0.0
 10
16.7710000000000008
 20
6.9780300000000004
 30
0.0
 10
16.7763999999999989
 20
6.9674399999999999
 30
0.0
 10
16.7864000000000004
 20
6.9104299999999999
 30
0.0
 10
16.7735999999999983
 20
6.8539399999999997
 30
0.0
 10
16.7676000000000016
 20
6.8435800000000002
 30
0.0
 10
16.7632000000000012
 20
6.8360399999999997
 30
0.0
 10
16.7462000000000018
 20
6.8155400000000004
 30
0.0
 10
16.7192000000000007
 20
6.7939400000000001
 30
0.0
 10
16.6875
 20
6.7796799999999999
 30
0.0
 10
16.6615000000000002
 20
6.77393
 30
0.0
 10
16.6527999999999992
 20
6.7734899999999998
 30
0.0
 10
16.6527999999999992
 20
6.7734899999999998
 30
0.0
 10
16.6409999999999982
 20
6.7769199999999996
 30
0.0
 10
16.6149999999999984
 20
6.78444
 30
0.0
 10
16.5888999999999989
 20
6.7919900000000002
 30
0.0
 10
16.5771000000000015
 20
6.7953599999999996
 30
0.0
 10
16.5771000000000015
 20
6.7953599999999996
 30
0.0
 10
16.5689999999999991
 20
6.7669300000000003
 30
0.0
 10
16.5563000000000002
 20
6.6782199999999996
 30
0.0
 10
16.5594000000000001
 20
6.5632599999999996
 30
0.0
 10
16.5850000000000009
 20
6.4534000000000002
 30
0.0
 10
16.6311999999999998
 20
6.3515100000000002
 30
0.0
 10
16.6963000000000008
 20
6.26058
 30
0.0
 10
16.7787000000000006
 20
6.1835399999999998
 30
0.0
 10
16.8766999999999996
 20
6.1232600000000001
 30
0.0
 10
16.9599000000000011
 20
6.0899599999999996
 30
0.0
 10
16.9886000000000017
 20
6.0827400000000003
 30
0.0
 10
17.0075000000000003
 20
6.1591800000000001
 30
0.0
 10
17.0122
 20
6.1665599999999996
 30
0.0
 10
17.0301000000000009
 20
6.1861899999999999
 30
0.0
 10
17.0582999999999991
 20
6.2064300000000001
 30
0.0
 10
17.0905999999999985
 20
6.2191299999999998
 30
0.0
 10
17.1168000000000013
 20
6.2235300000000002
 30
0.0
 10
17.1255999999999986
 20
6.2235300000000002
 30
0.0
 10
17.1342999999999996
 20
6.2235300000000002
 30
0.0
 10
17.1605999999999987
 20
6.2191299999999998
 30
0.0
 10
17.1927999999999983
 20
6.2064300000000001
 30
0.0
 10
17.2210000000000001
 20
6.1861899999999999
 30
0.0
 10
17.238900000000001
 20
6.1665599999999996
 30
0.0
 10
17.2438000000000002
 20
6.1591800000000001
 30
0.0
 10
17.2625999999999991
 20
6.0827400000000003
 30
0.0
 10
17.2911999999999999
 20
6.0899599999999996
 30
0.0
 10
17.3744000000000014
 20
6.1232600000000001
 30
0.0
 10
17.4725000000000001
 20
6.1835399999999998
 30
0.0
 10
17.5548999999999999
 20
6.26058
 30
0.0
 10
17.620000000000001
 20
6.3515100000000002
 30
0.0
 10
17.6661000000000001
 20
6.4534000000000002
 30
0.0
 10
17.6917000000000009
 20
6.5632599999999996
 30
0.0
 10
17.6949000000000005
 20
6.6782199999999996
 30
0.0
 10
17.6820999999999984
 20
6.7669300000000003
 30
0.0
 10
17.6739999999999995
 20
6.7953599999999996
 30
0.0
 10
17.5985000000000014
 20
6.7734899999999998
 30
0.0
  0
LWPOLYLINE
  5
8C
  8
0
 62
256
370
-1
 48
1.0
  6
BYLAYER
100
AcDbEntity
100
AcDbPolyline
 90
69
 70
1
 10
11.3119999999999994
 20
8.8994700000000009
 30
0.0
 10
11.3876000000000008
 20
8.8776100000000007
 30
0.0
 10
11.3956999999999997
 20
8.9060799999999993
 30
0.0
 10
11.4084000000000003
 20
8.9947900000000001
 30
0.0
 10
11.4052000000000007
 20
9.10975
 30
0.0
 10
11.3796999999999997
 20
9.2196099999999994
 30
0.0
 10
11.3336000000000006
 20
9.3214600000000001
 30
0.0
 10
11.2683999999999997
 20
9.4123699999999992
 30
0.0
 10
11.1859999999999999
 20
9.4894200000000009
 30
0.0
 10
11.0879999999999992
 20
9.54969
 30
0.0
 10
11.0047999999999995
 20
9.5830099999999998
 30
0.0
 10
10.9762000000000004
 20
9.5901700000000005
 30
0.0
 10
10.9573
 20
9.5137800000000006
 30
0.0
 10
10.9525000000000006
 20
9.5064600000000006
 30
0.0
 10
10.9345999999999997
 20
9.4868199999999998
 30
0.0
 10
10.9063999999999997
 20
9.4665800000000004
 30
0.0
 10
10.8741000000000003
 20
9.4538899999999995
 30
0.0
 10
10.8478999999999992
 20
9.4494299999999996
 30
0.0
 10
10.8391999999999999
 20
9.4494299999999996
 30
0.0
 10
10.8303999999999991
 20
9.4494299999999996
 30
0.0
 10
10.8041999999999998
 20
9.4538899999999995
 30
0.0
 10
10.7719000000000005
 20
9.4665800000000004
 30
0.0
 10
10.7437000000000005
 20
9.4868199999999998
 30
0.0
 10
10.7257999999999996
 20
9.5064600000000006
 30
0.0
 10
10.7210999999999999
 20
9.5137800000000006
 30
0.0
 10
10.7021999999999995
 20
9.5901700000000005
 30
0.0
 10
10.6735000000000007
 20
9.5830099999999998
 30
0.0
 10
10.5902999999999992
 20
9.54969
 30
0.0
 10
10.4923000000000002
 20
9.4894700000000007
 30
0.0
 10
10.4099000000000004
 20
9.4124300000000005
 30
0.0
 10
10.3447999999999993
 20
9.3215000000000003
 30
0.0
 10
10.2986000000000004
 20
9.2196099999999994
 30
0.0
 10
10.2730999999999995
 20
9.10975
 30
0.0
 10
10.2698999999999998
 20
8.9947900000000001
 30
0.0
 10
10.2826000000000004
 20
8.9060799999999993
 30
0.0
 10
10.2908000000000008
 20
8.8776100000000007
 30
0.0
 10
10.3664000000000005
 20
8.8994700000000009
 30
0.0
 10
10.3750999999999998
 20
8.8990299999999998
 30
0.0
 10
10.4010999999999996
 20
8.8933300000000006
 30
0.0
 10
10.4327000000000005
 20
8.8790700000000005
 30
0.0
 10
10.4597999999999995
 20
8.8574699999999993
 30
0.0
 10
10.4768000000000008
 20
8.8369700000000009
 30
0.0
 10
10.4811999999999994
 20
8.8293800000000005
 30
0.0
 10
10.4870999999999999
 20
8.81907
 30
0.0
 10
10.4999000000000002
 20
8.7625799999999998
 30
0.0
 10
10.4900000000000002
 20
8.7055100000000003
 30
0.0
 10
10.4845000000000006
 20
8.6948799999999995
 30
0.0
 10
10.4276999999999997
 20
8.6403099999999995
 30
0.0
 10
10.4482999999999997
 20
8.6190800000000003
 30
0.0
 10
10.5187000000000008
 20
8.5636899999999994
 30
0.0
 10
10.6198999999999995
 20
8.5089600000000001
 30
0.0
 10
10.7278000000000002
 20
8.4761299999999995
 30
0.0
 10
10.8391000000000002
 20
8.4651700000000005
 30
0.0
 10
10.9504999999999999
 20
8.4761299999999995
 30
0.0
 10
11.0584000000000007
 20
8.5089600000000001
 30
0.0
 10
11.1595999999999993
 20
8.5636899999999994
 30
0.0
 10
11.2300000000000004
 20
8.6190800000000003
 30
0.0
 10
11.2506000000000004
 20
8.6403099999999995
 30
0.0
 10
11.1937999999999995
 20
8.6948799999999995
 30
0.0
 10
11.1883999999999997
 20
8.7055100000000003
 30
0.0
 10
11.1783999999999999
 20
8.7625799999999998
 30
0.0
 10
11.1913
 20
8.81907
 30
0.0
 10
11.1972000000000005
 20
8.8293800000000005
 30
0.0
 10
11.2015999999999991
 20
8.8369700000000009
 30
0.0
 10
11.2185000000000006
 20
8.8574699999999993
 30
0.0
 10
11.2456999999999994
 20
8.8790700000000005
 30
0.0
 10
11.2773000000000003
 20
8.8933300000000006
 30
0.0
 10
11.3033000000000001
 20
8.8990299999999998
 30
0.0
 10
11.3119999999999994
 20
8.8994700000000009
 30
0.0
  0
LWPOLYLINE
  5
8D
  8
0
 62
256
370
-1
 48
1.0
  6
BYLAYER
100
AcDbEntity
100
AcDbPolyline
 90
55
 70
1
 10
12.5908999999999995
 20
8.5096000000000007
 30
0.0
 10
12.5847999999999995
 20
8.5116099999999992
 30
0.0
 10
12.5614000000000008
 20
8.5310799999999993
 30
0.0
 10
12.5502000000000002
 20
8.5571199999999994
 30
0.0
 10
12.5502000000000002
 20
8.5657499999999995
 30
0.0
 10
12.5502000000000002
 20
9.0902799999999999
 30
0.0
 10
12.4115000000000002
 20
9.1296700000000008
 30
0.0
 10
12.2727000000000004
 20
9.0902799999999999
 30
0.0
 10
12.2727000000000004
 20
8.4815000000000005
 30
0.0
 10
11.5411999999999999
 20
8.2431699999999992
 30
0.0
 10
11.5190000000000001
 20
8.2379599999999993
 30
0.0
 10
11.4149999999999991
 20
8.1937899999999999
 30
0.0
 10
11.3236000000000008
 20
8.1274999999999995
 30
0.0
 10
11.3077000000000005
 20
8.1111699999999995
 30
0.0
 10
11.2920999999999996
 20
8.0922400000000003
 30
0.0
 10
11.2380999999999993
 20
7.9842599999999999
 30
0.0
 10
11.2181999999999995
 20
7.8652899999999999
 30
0.0
 10
11.2195999999999998
 20
7.8407600000000004
 30
0.0
 10
11.2181999999999995
 20
7.8162900000000004
 30
0.0
 10
11.2380999999999993
 20
7.69726
 30
0.0
 10
11.2920999999999996
 20
7.5893100000000002
 30
0.0
 10
11.3077000000000005
 20
7.5703100000000001
 30
0.0
 10
11.3236000000000008
 20
7.5540399999999996
 30
0.0
 10
11.4149999999999991
 20
7.4877399999999996
 30
0.0
 10
11.5190000000000001
 20
7.4436200000000001
 30
0.0
 10
11.5411999999999999
 20
7.4383600000000003
 30
0.0
 10
12.2727000000000004
 20
7.1999700000000004
 30
0.0
 10
12.2727000000000004
 20
6.5911900000000001
 30
0.0
 10
12.4114000000000004
 20
6.5518599999999996
 30
0.0
 10
12.5502000000000002
 20
6.5911900000000001
 30
0.0
 10
12.5502000000000002
 20
7.11578
 30
0.0
 10
12.5502000000000002
 20
7.12446
 30
0.0
 10
12.5614000000000008
 20
7.1505000000000001
 30
0.0
 10
12.5847999999999995
 20
7.1699200000000003
 30
0.0
 10
12.5908999999999995
 20
7.1718799999999998
 30
0.0
 10
12.5908999999999995
 20
7.1718799999999998
 30
0.0
 10
13.2924000000000007
 20
7.4003899999999998
 30
0.0
 10
13.2924000000000007
 20
7.4003899999999998
 30
0.0
 10
13.3163
 20
7.4061399999999997
 30
0.0
 10
13.4286999999999992
 20
7.4543200000000001
 30
0.0
 10
13.5274999999999999
 20
7.5263200000000001
 30
0.0
 10
13.5447000000000006
 20
7.5439999999999996
 30
0.0
 10
13.5617999999999999
 20
7.5647799999999998
 30
0.0
 10
13.6214999999999993
 20
7.6831699999999996
 30
0.0
 10
13.6441999999999997
 20
7.81386
 30
0.0
 10
13.6426999999999996
 20
7.8407600000000004
 30
0.0
 10
13.6441999999999997
 20
7.8677400000000004
 30
0.0
 10
13.6214999999999993
 20
7.9983700000000004
 30
0.0
 10
13.5617999999999999
 20
8.1166900000000002
 30
0.0
 10
13.5447000000000006
 20
8.1374700000000004
 30
0.0
 10
13.5274999999999999
 20
8.15517
 30
0.0
 10
13.4286999999999992
 20
8.2272099999999995
 30
0.0
 10
13.3163
 20
8.2753300000000003
 30
0.0
 10
13.2924000000000007
 20
8.2810799999999993
 30
0.0
 10
12.5908999999999995
 20
8.5096000000000007
 30
0.0
  0
LWPOLYLINE
  5
8E
  8
0
 62
256
370
-1
 48
1.0
  6
BYLAYER
100
AcDbEntity
100
AcDbPolyline
 90
2
 70
0
 10
15.5678000000000001
 20
9.34619
 30
0.0
 10
15.5678000000000001
 20
9.6414399999999993
 30
0.0
  0
LWPOLYLINE
  5
8F
  8
0
 62
256
370
-1
 48
1.0
  6
BYLAYER
100
AcDbEntity
100
AcDbPolyline
 90
2
 70
0
 10
12.4115000000000002
 20
9.34619
 30
0.0
 10
12.4115000000000002
 20
9.6414399999999993
 30
0.0
  0
LWPOLYLINE
  5
90
  8
0
 62
256
370
-1
 48
1.0
  6
BYLAYER
100
AcDbEntity
100
AcDbPolyline
 90
95
 70
1
 10
12.4115000000000002
 20
9.8383199999999995
 30
0.0
 10
12.5502000000000002
 20
9.8776499999999992
 30
0.0
 10
12.5502000000000002
 20
10.2759
 30
0.0
 10
13.5959000000000003
 20
10.2759
 30
0.0
 10
13.6353000000000009
 20
10.3940000000000001
 30
0.0
 10
14.3439999999999994
 20
10.3940000000000001
 30
0.0
 10
14.3833000000000002
 20
10.2759
 30
0.0
 10
15.4290000000000003
 20
10.2759
 30
0.0
 10
15.4290000000000003
 20
9.8776499999999992
 30
0.0
 10
15.5678000000000001
 20
9.8383199999999995
 30
0.0
 10
15.7065000000000001
 20
9.8776499999999992
 30
0.0
 10
15.7065000000000001
 20
10.2759
 30
0.0
 10
16.7524000000000015
 20
10.2759
 30
0.0
 10
16.7916999999999987
 20
10.3940000000000001
 30
0.0
 10
17.5002999999999993
 20
10.3940000000000001
 30
0.0
 10
17.5396999999999998
 20
10.2759
 30
0.0
 10
18.5853999999999999
 20
10.2759
 30
0.0
 10
18.5853999999999999
 20
9.8776499999999992
 30
0.0
 10
18.7043999999999997
 20
9.8383199999999995
 30
0.0
 10
18.7043999999999997
 20
9.1296700000000008
 30
0.0
 10
18.5853999999999999
 20
9.0902799999999999
 30
0.0
 10
18.5853999999999999
 20
8.6071500000000007
 30
0.0
 10
18.5853999999999999
 20
8.5985300000000002
 30
0.0
 10
18.5742000000000012
 20
8.5724900000000002
 30
0.0
 10
18.5507999999999988
 20
8.5530600000000003
 30
0.0
 10
18.5446999999999989
 20
8.5510599999999997
 30
0.0
 10
17.8325999999999993
 20
8.3190100000000005
 30
0.0
 10
17.8067999999999991
 20
8.3127800000000001
 30
0.0
 10
17.6860999999999997
 20
8.2606900000000003
 30
0.0
 10
17.5801000000000016
 20
8.1828900000000004
 30
0.0
 10
17.5616999999999983
 20
8.1637900000000005
 30
0.0
 10
17.5428999999999995
 20
8.1412200000000006
 30
0.0
 10
17.4771999999999998
 20
8.0124700000000004
 30
0.0
 10
17.4521000000000015
 20
7.8701100000000004
 30
0.0
 10
17.4534999999999982
 20
7.8407600000000004
 30
0.0
 10
17.4521000000000015
 20
7.81142
 30
0.0
 10
17.4771999999999998
 20
7.6691099999999999
 30
0.0
 10
17.5428999999999995
 20
7.5403599999999997
 30
0.0
 10
17.5616999999999983
 20
7.5177399999999999
 30
0.0
 10
17.5801000000000016
 20
7.4986899999999999
 30
0.0
 10
17.6860999999999997
 20
7.4208999999999996
 30
0.0
 10
17.8067999999999991
 20
7.36876
 30
0.0
 10
17.8325999999999993
 20
7.3624700000000001
 30
0.0
 10
18.5446999999999989
 20
7.13049
 30
0.0
 10
18.5446999999999989
 20
7.13049
 30
0.0
 10
18.5507999999999988
 20
7.1285299999999996
 30
0.0
 10
18.5742000000000012
 20
7.1090600000000004
 30
0.0
 10
18.5853999999999999
 20
7.0830099999999998
 30
0.0
 10
18.5853999999999999
 20
7.0743299999999998
 30
0.0
 10
18.5853999999999999
 20
6.5911900000000001
 30
0.0
 10
18.7043999999999997
 20
6.5518599999999996
 30
0.0
 10
18.7043999999999997
 20
5.84321
 30
0.0
 10
18.5853999999999999
 20
5.80382
 30
0.0
 10
18.5853999999999999
 20
5.3349000000000002
 30
0.0
 10
17.5396999999999998
 20
5.3349000000000002
 30
0.0
 10
17.5002999999999993
 20
5.2561799999999996
 30
0.0
 10
16.7916999999999987
 20
5.2561799999999996
 30
0.0
 10
16.7524000000000015
 20
5.3349000000000002
 30
0.0
 10
15.7065000000000001
 20
5.3349000000000002
 30
0.0
 10
15.7065000000000001
 20
5.80382
 30
0.0
 10
15.5678000000000001
 20
5.84321
 30
0.0
 10
15.4290000000000003
 20
5.80382
 30
0.0
 10
15.4290000000000003
 20
5.3349000000000002
 30
0.0
 10
14.3833000000000002
 20
5.3349000000000002
 30
0.0
 10
14.3439999999999994
 20
5.2561799999999996
 30
0.0
 10
13.6353000000000009
 20
5.2561799999999996
 30
0.0
 10
13.5959000000000003
 20
5.3349000000000002
 30
0.0
 10
12.5502000000000002
 20
5.3349000000000002
 30
0.0
 10
12.5502000000000002
 20
5.80382
 30
0.0
 10
12.4114000000000004
 20
5.84321
 30
0.0
 10
12.2727000000000004
 20
5.80382
 30
0.0
 10
12.2727000000000004
 20
5.3349000000000002
 30
0.0
 10
12.2690000000000001
 20
5.3349000000000002
 30
0.0
 10
11.2232000000000003
 20
5.3349000000000002
 30
0.0
 10
11.1838999999999995
 20
5.2561799999999996
 30
0.0
 10
10.4753000000000007
 20
5.2561799999999996
 30
0.0
 10
10.4359000000000002
 20
5.3349000000000002
 30
0.0
 10
9.3938199999999998
 20
5.3349000000000002
 30
0.0
 10
9.3937799999999996
 20
5.80382
 30
0.0
 10
9.2354000000000003
 20
5.84321
 30
0.0
 10
9.2354000000000003
 20
6.5518599999999996
 30
0.0
 10
9.3937799999999996
 20
6.5911900000000001
 30
0.0
 10
9.3937799999999996
 20
9.0902799999999999
 30
0.0
 10
9.2354000000000003
 20
9.1296700000000008
 30
0.0
 10
9.2354000000000003
 20
9.8383199999999995
 30
0.0
 10
9.3937799999999996
 20
9.8776499999999992
 30
0.0
 10
9.3937799999999996
 20
10.2759
 30
0.0
 10
10.4001999999999999
 20
10.2759
 30
0.0
 10
10.4396000000000004
 20
10.2759
 30
0.0
 10
10.4788999999999994
 20
10.3940000000000001
 30
0.0
 10
11.1875999999999998
 20
10.3940000000000001
 30
0.0
 10
11.2270000000000003
 20
10.2759
 30
0.0
 10
12.2727000000000004
 20
10.2759
 30
0.0
 10
12.2727000000000004
 20
9.8776499999999992
 30
0.0
 10
12.4115000000000002
 20
9.8383199999999995
 30
0.0
  0
LWPOLYLINE
  5
91
  8
0
 62
256
370
-1
 48
1.0
  6
BYLAYER
100
AcDbEntity
100
AcDbPolyline
 90
13
 70
0
 10
1.8394600000000001
 20
3.6803900000000001
 30
0.0
 10
1.8765099999999999
 20
3.6804999999999999
 30
0.0
 10
1.9876799999999999
 20
3.70329
 30
0.0
 10
2.0906500000000001
 20
3.76519
 30
0.0
 10
2.15076
 20
3.8571
 30
0.0
 10
2.1704599999999998
 20
3.9417399999999998
 30
0.0
 10
2.1706300000000001
 20
3.9699399999999998
 30
0.0
 10
2.1704599999999998
 20
3.9982099999999998
 30
0.0
 10
2.15076
 20
4.0828499999999996
 30
0.0
 10
2.0906500000000001
 20
4.1747500000000004
 30
0.0
 10
1.9876799999999999
 20
4.23665
 30
0.0
 10
1.8765099999999999
 20
4.2594399999999997
 30
0.0
 10
1.8394600000000001
 20
4.2595000000000001
 30
0.0
  0
LWPOLYLINE
  5
92
  8
0
 62
256
370
-1
 48
1.0
  6
BYLAYER
100
AcDbEntity
100
AcDbPolyline
 90
2
 70
0
 10
1.31847
 20
4.2595000000000001
 30
0.0
 10
1.8394600000000001
 20
4.2595000000000001
 30
0.0
  0
LWPOLYLINE
  5
93
  8
0
 62
256
370
-1
 48
1.0
  6
BYLAYER
100
AcDbEntity
100
AcDbPolyline
 90
13
 70
0
 10
1.31847
 20
4.2595000000000001
 30
0.0
 10
1.2813600000000001
 20
4.2594399999999997
 30
0.0
 10
1.17014
 20
4.23665
 30
0.0
 10
1.0672200000000001
 20
4.1747500000000004
 30
0.0
 10
1.0071099999999999
 20
4.0828499999999996
 30
0.0
 10
0.987414
 20
3.9982099999999998
 30
0.0
 10
0.987304
 20
3.9699399999999998
 30
0.0
 10
0.987414
 20
3.9417399999999998
 30
0.0
 10
1.0071099999999999
 20
3.8571
 30
0.0
 10
1.0672200000000001
 20
3.76519
 30
0.0
 10
1.17014
 20
3.70329
 30
0.0
 10
1.2813600000000001
 20
3.6804999999999999
 30
0.0
 10
1.31847
 20
3.6803900000000001
 30
0.0
  0
LWPOLYLINE
  5
94
  8
0
 62
256
370
-1
 48
1.0
  6
BYLAYER
100
AcDbEntity
100
AcDbPolyline
 90
2
 70
0
 10
1.8394600000000001
 20
3.6803900000000001
 30
0.0
 10
1.31847
 20
3.6803900000000001
 30
0.0
  0
LWPOLYLINE
  5
95
  8
0
 62
256
370
-1
 48
1.0
  6
BYLAYER
100
AcDbEntity
100
AcDbPolyline
 90
89
 70
0
 10
22.6171000000000006
 20
4.7656299999999998
 30
0.0
 10
22.6171000000000006
 20
2.6396500000000001
 30
0.0
 10
17.1789999999999985
 20
2.6396500000000001
 30
0.0
 10
17.0017999999999994
 20
1.57667
 30
0.0
 10
16.8295999999999992
 20
1.57667
 30
0.0
 10
16.8011000000000017
 20
1.6314
 30
0.0
 10
16.7056000000000004
 20
1.7902499999999999
 30
0.0
 10
16.5622000000000007
 20
1.9909399999999999
 30
0.0
 10
16.4007000000000005
 20
2.1773099999999999
 30
0.0
 10
16.2685999999999993
 20
2.3075100000000002
 30
0.0
 10
16.2221000000000011
 20
2.3479299999999999
 30
0.0
 10
16.1725999999999992
 20
2.3939300000000001
 30
0.0
 10
15.9068000000000005
 20
2.60101
 30
0.0
 10
15.6186000000000007
 20
2.7755000000000001
 30
0.0
 10
15.5580999999999996
 20
2.80524
 30
0.0
 10
15.4801000000000002
 20
2.8401100000000001
 30
0.0
 10
15.2393999999999998
 20
2.9281700000000002
 30
0.0
 10
14.9125999999999994
 20
3.01606
 30
0.0
 10
14.5800999999999998
 20
3.0689600000000001
 30
0.0
 10
14.2449999999999992
 20
3.0867499999999999
 30
0.0
 10
13.9097000000000008
 20
3.0695600000000001
 30
0.0
 10
13.5770999999999997
 20
3.0173100000000002
 30
0.0
 10
13.2500999999999998
 20
2.9300099999999998
 30
0.0
 10
13.0091999999999999
 20
2.84239
 30
0.0
 10
12.9314
 20
2.8076699999999999
 30
0.0
 10
12.8811
 20
2.7840099999999999
 30
0.0
 10
12.7345000000000006
 20
2.70404
 30
0.0
 10
12.5485000000000007
 20
2.5842499999999999
 30
0.0
 10
12.3742999999999999
 20
2.44922
 30
0.0
 10
12.2127999999999997
 20
2.2998099999999999
 30
0.0
 10
12.0648999999999997
 20
2.13693
 30
0.0
 10
11.9314
 20
1.96153
 30
0.0
 10
11.8132999999999999
 20
1.77447
 30
0.0
 10
11.7347000000000001
 20
1.62717
 30
0.0
 10
11.7114999999999991
 20
1.57667
 30
0.0
 10
8.7784300000000002
 20
1.57667
 30
0.0
 10
8.7208100000000002
 20
1.6725300000000001
 30
0.0
 10
8.5259300000000007
 20
1.94672
 30
0.0
 10
8.2333999999999996
 20
2.2844000000000002
 30
0.0
 10
7.9041399999999999
 20
2.5862599999999998
 30
0.0
 10
7.6354699999999998
 20
2.7887900000000001
 30
0.0
 10
7.5413500000000004
 20
2.8490099999999998
 30
0.0
 10
7.5022200000000003
 20
2.8745099999999999
 30
0.0
 10
7.2937799999999999
 20
2.9775999999999998
 30
0.0
 10
7.0718899999999998
 20
3.0469300000000001
 30
0.0
 10
7.0260400000000001
 20
3.0554999999999999
 30
0.0
 10
7.0118799999999997
 20
3.0581700000000001
 30
0.0
 10
6.9707600000000003
 20
3.07314
 30
0.0
 10
6.9221000000000004
 20
3.1031399999999998
 30
0.0
 10
6.8820600000000001
 20
3.1439900000000001
 30
0.0
 10
6.8583999999999996
 20
3.1808299999999998
 30
0.0
 10
6.8527100000000001
 20
3.19401
 30
0.0
 10
6.6636800000000003
 20
3.6316199999999998
 30
0.0
 10
6.6532099999999996
 20
3.6636299999999999
 30
0.0
 10
6.6014600000000003
 20
3.7528199999999998
 30
0.0
 10
6.5072200000000002
 20
3.84646
 30
0.0
 10
6.3888299999999996
 20
3.9067400000000001
 30
0.0
 10
6.2879199999999997
 20
3.9279999999999999
 30
0.0
 10
6.2543300000000004
 20
3.92794
 30
0.0
 10
6.2207100000000004
 20
3.9278499999999998
 30
0.0
 10
6.1199000000000003
 20
3.9060299999999999
 30
0.0
 10
6.0018500000000001
 20
3.84517
 30
0.0
 10
5.9081000000000001
 20
3.7510300000000001
 30
0.0
 10
5.8567799999999997
 20
3.6615099999999998
 30
0.0
 10
5.8465100000000003
 20
3.6295000000000002
 30
0.0
 10
5.6433900000000001
 20
3.1864699999999999
 30
0.0
 10
5.6374700000000004
 20
3.17367
 30
0.0
 10
5.6135599999999997
 20
3.1380300000000001
 30
0.0
 10
5.5737399999999999
 20
3.0985299999999998
 30
0.0
 10
5.5256699999999999
 20
3.0696099999999999
 30
0.0
 10
5.4852499999999997
 20
3.05518
 30
0.0
 10
5.4714
 20
3.0526300000000002
 30
0.0
 10
5.4255699999999996
 20
3.0442200000000001
 30
0.0
 10
5.2037800000000001
 20
2.9754700000000001
 30
0.0
 10
4.9955600000000002
 20
2.8727200000000002
 30
0.0
 10
4.9564899999999996
 20
2.84728
 30
0.0
 10
4.8550300000000002
 20
2.7888500000000001
 30
0.0
 10
4.5642399999999999
 20
2.5901100000000001
 30
0.0
 10
4.2051400000000001
 20
2.2903600000000002
 30
0.0
 10
3.8828100000000001
 20
1.9514400000000001
 30
0.0
 10
3.6656399999999998
 20
1.6740999999999999
 30
0.0
 10
3.6008100000000001
 20
1.57667
 30
0.0
 10
0.509603
 20
1.57667
 30
0.0
 10
0.509603
 20
4.7656299999999998
 30
0.0
 10
0.509603
 20
8.1085600000000007
 30
0.0
 10
3.2917800000000002
 20
8.1085600000000007
 30
0.0
 10
3.2917800000000002
 20
4.9365800000000002
 30
0.0
 10
3.4758100000000001
 20
4.7656299999999998
 30
0.0
 10
3.4916900000000002
 20
4.7656299999999998
 30
0.0
  0
LWPOLYLINE
  5
96
  8
0
 62
256
370
-1
 48
1.0
  6
BYLAYER
100
AcDbEntity
100
AcDbPolyline
 90
21
 70
0
 10
1.4141699999999999
 20
6.1577099999999998
 30
0.0
 10
1.3932800000000001
 20
6.1576700000000004
 30
0.0
 10
1.3306800000000001
 20
6.1491400000000001
 30
0.0
 10
1.2530399999999999
 20
6.1250600000000004
 30
0.0
 10
1.18289
 20
6.0870300000000004
 30
0.0
 10
1.12185
 20
6.0366799999999996
 30
0.0
 10
1.07151
 20
5.9756400000000003
 30
0.0
 10
1.03348
 20
5.9054900000000004
 30
0.0
 10
1.00939
 20
5.8278499999999998
 30
0.0
 10
1.0008699999999999
 20
5.7651899999999996
 30
0.0
 10
1.00081
 20
5.7443099999999996
 30
0.0
 10
1.0008699999999999
 20
5.7234699999999998
 30
0.0
 10
1.00939
 20
5.6608099999999997
 30
0.0
 10
1.03348
 20
5.5832199999999998
 30
0.0
 10
1.07151
 20
5.5130699999999999
 30
0.0
 10
1.12185
 20
5.4520400000000002
 30
0.0
 10
1.18289
 20
5.4016900000000003
 30
0.0
 10
1.2530399999999999
 20
5.3636699999999999
 30
0.0
 10
1.3306800000000001
 20
5.3395099999999998
 30
0.0
 10
1.3932800000000001
 20
5.3310000000000004
 30
0.0
 10
1.4141699999999999
 20
5.33094
 30
0.0
  0
LWPOLYLINE
  5
97
  8
0
 62
256
370
-1
 48
1.0
  6
BYLAYER
100
AcDbEntity
100
AcDbPolyline
 90
21
 70
0
 10
1.7685
 20
5.33094
 30
0.0
 10
1.7893300000000001
 20
5.3310000000000004
 30
0.0
 10
1.8520000000000001
 20
5.3395099999999998
 30
0.0
 10
1.92964
 20
5.3636699999999999
 30
0.0
 10
1.9997799999999999
 20
5.4016900000000003
 30
0.0
 10
2.0608200000000001
 20
5.4520400000000002
 30
0.0
 10
2.11117
 20
5.5130699999999999
 30
0.0
 10
2.1491899999999999
 20
5.5832199999999998
 30
0.0
 10
2.17333
 20
5.6608599999999996
 30
0.0
 10
2.1818599999999999
 20
5.7235300000000002
 30
0.0
 10
2.1819199999999999
 20
5.7443600000000004
 30
0.0
 10
2.1818599999999999
 20
5.76525
 30
0.0
 10
2.17333
 20
5.8278999999999996
 30
0.0
 10
2.1491899999999999
 20
5.9054900000000004
 30
0.0
 10
2.11117
 20
5.9756400000000003
 30
0.0
 10
2.0608200000000001
 20
6.0366799999999996
 30
0.0
 10
1.9997799999999999
 20
6.0870300000000004
 30
0.0
 10
1.92964
 20
6.1250600000000004
 30
0.0
 10
1.8520000000000001
 20
6.1491899999999999
 30
0.0
 10
1.7893300000000001
 20
6.1576700000000004
 30
0.0
 10
1.7685
 20
6.1577099999999998
 30
0.0
  0
LWPOLYLINE
  5
98
  8
0
 62
256
370
-1
 48
1.0
  6
BYLAYER
100
AcDbEntity
100
AcDbPolyline
 90
2
 70
0
 10
1.4141699999999999
 20
5.33094
 30
0.0
 10
1.7685
 20
5.33094
 30
0.0
  0
LWPOLYLINE
  5
99
  8
0
 62
256
370
-1
 48
1.0
  6
BYLAYER
100
AcDbEntity
100
AcDbPolyline
 90
2
 70
0
 10
1.7685
 20
6.1577099999999998
 30
0.0
 10
1.4141699999999999
 20
6.1577099999999998
 30
0.0
  0
LWPOLYLINE
  5
9A
  8
0
 62
256
370
-1
 48
1.0
  6
BYLAYER
100
AcDbEntity
100
AcDbPolyline
 90
2
 70
0
 10
19.7036000000000016
 20
3.5630999999999999
 30
0.0
 10
19.7036000000000016
 20
3.3356699999999999
 30
0.0
  0
LWPOLYLINE
  5
9B
  8
0
 62
256
370
-1
 48
1.0
  6
BYLAYER
100
AcDbEntity
100
AcDbPolyline
 90
2
 70
0
 10
19.7823999999999991
 20
3.3356699999999999
 30
0.0
 10
19.7823999999999991
 20
3.5630999999999999
 30
0.0
  0
LWPOLYLINE
  5
9C
  8
0
 62
256
370
-1
 48
1.0
  6
BYLAYER
100
AcDbEntity
100
AcDbPolyline
 90
2
 70
0
 10
19.7036000000000016
 20
3.1082399999999999
 30
0.0
 10
19.7036000000000016
 20
2.8808099999999999
 30
0.0
  0
LWPOLYLINE
  5
9D
  8
0
 62
256
370
-1
 48
1.0
  6
BYLAYER
100
AcDbEntity
100
AcDbPolyline
 90
2
 70
0
 10
19.7823999999999991
 20
2.8808099999999999
 30
0.0
 10
19.7823999999999991
 20
3.1082399999999999
 30
0.0
  0
LWPOLYLINE
  5
9E
  8
0
 62
1
420
16711680
370
-1
 48
1.0
  6
BYLAYER
100
AcDbEntity
100
AcDbPolyline
 90
2
 70
0
 10
3.2917800000000002
 20
4.9400599999999999
 30
0.0
 10
0.509603
 20
4.9400599999999999
 30
0.0
  0
LWPOLYLINE
  5
9F
  8
0
 62
256
370
-1
 48
1.0
  6
BYLAYER
100
AcDbEntity
100
AcDbPolyline
 90
2
 70
0
 10
3.4758100000000001
 20
2.8414199999999998
 30
0.0
 10
3.4758100000000001
 20
2.7011699999999998
 30
0.0
  0
LWPOLYLINE
  5
A0
  8
0
 62
1
420
16711680
370
-1
 48
1.0
  6
BYLAYER
100
AcDbEntity
100
AcDbPolyline
 90
2
 70
0
 10
3.4758100000000001
 20
2.5043299999999999
 30
0.0
 10
3.4758100000000001
 20
2.3074599999999998
 30
0.0
  0
LWPOLYLINE
  5
A1
  8
0
 62
1
420
16711680
370
-1
 48
1.0
  6
BYLAYER
100
AcDbEntity
100
AcDbPolyline
 90
2
 70
0
 10
3.4758100000000001
 20
2.1106199999999999
 30
0.0
 10
3.4758100000000001
 20
1.9137900000000001
 30
0.0
  0
LWPOLYLINE
  5
A2
  8
0
 62
1
420
16711680
370
-1
 48
1.0
  6
BYLAYER
100
AcDbEntity
100
AcDbPolyline
 90
2
 70
0
 10
8.8079400000000003
 20
8.1908600000000007
 30
0.0
 10
3.5708600000000001
 20
8.1908600000000007
 30
0.0
  0
LWPOLYLINE
  5
A3
  8
0
 62
1
420
16711680
370
-1
 48
1.0
  6
BYLAYER
100
AcDbEntity
100
AcDbPolyline
 90
2
 70
0
 10
8.8079400000000003
 20
5.1211000000000002
 30
0.0
 10
3.5708600000000001
 20
5.1211000000000002
 30
0.0
  0
LWPOLYLINE
  5
A4
  8
0
 62
1
420
16711680
370
-1
 48
1.0
  6
BYLAYER
100
AcDbEntity
100
AcDbPolyline
 90
2
 70
0
 10
3.4758100000000001
 20
1.7169000000000001
 30
0.0
 10
3.4758100000000001
 20
1.57667
 30
0.0
  0
LWPOLYLINE
  5
A5
  8
0
 62
1
420
16711680
370
-1
 48
1.0
  6
BYLAYER
100
AcDbEntity
100
AcDbPolyline
 90
2
 70
0
 10
19.7036000000000016
 20
4.7656299999999998
 30
0.0
 10
19.7036000000000016
 20
4.4728199999999996
 30
0.0
  0
LWPOLYLINE
  5
A6
  8
0
 62
1
420
16711680
370
-1
 48
1.0
  6
BYLAYER
100
AcDbEntity
100
AcDbPolyline
 90
2
 70
0
 10
19.7036000000000016
 20
4.2453900000000004
 30
0.0
 10
19.7036000000000016
 20
4.0211100000000002
 30
0.0
  0
LWPOLYLINE
  5
A7
  8
0
 62
1
420
16711680
370
-1
 48
1.0
  6
BYLAYER
100
AcDbEntity
100
AcDbPolyline
 90
2
 70
0
 10
19.7823999999999991
 20
4.0211100000000002
 30
0.0
 10
19.7823999999999991
 20
4.2453900000000004
 30
0.0
  0
LWPOLYLINE
  5
A8
  8
0
 62
1
420
16711680
370
-1
 48
1.0
  6
BYLAYER
100
AcDbEntity
100
AcDbPolyline
 90
2
 70
0
 10
19.7823999999999991
 20
4.4728199999999996
 30
0.0
 10
19.7823999999999991
 20
4.7656299999999998
 30
0.0
  0
LWPOLYLINE
  5
A9
  8
0
 62
1
420
16711680
370
-1
 48
1.0
  6
BYLAYER
100
AcDbEntity
100
AcDbPolyline
 90
2
 70
0
 10
16.8295999999999992
 20
2.5043299999999999
 30
0.0
 10
16.8295999999999992
 20
2.3074599999999998
 30
0.0
  0
LWPOLYLINE
  5
AA
  8
0
 62
1
420
16711680
370
-1
 48
1.0
  6
BYLAYER
100
AcDbEntity
100
AcDbPolyline
 90
2
 70
0
 10
16.8295999999999992
 20
2.1106199999999999
 30
0.0
 10
16.8295999999999992
 20
1.9137900000000001
 30
0.0
  0
LWPOLYLINE
  5
AB
  8
0
 62
1
420
16711680
370
-1
 48
1.0
  6
BYLAYER
100
AcDbEntity
100
AcDbPolyline
 90
2
 70
0
 10
19.7823999999999991
 20
2.6396500000000001
 30
0.0
 10
19.7823999999999991
 20
2.8808099999999999
 30
0.0
  0
LWPOLYLINE
  5
AC
  8
0
 62
1
420
16711680
370
-1
 48
1.0
  6
BYLAYER
100
AcDbEntity
100
AcDbPolyline
 90
2
 70
0
 10
19.7036000000000016
 20
2.8808099999999999
 30
0.0
 10
19.7036000000000016
 20
2.6396500000000001
 30
0.0
  0
LWPOLYLINE
  5
AD
  8
0
 62
256
370
-1
 48
1.0
  6
BYLAYER
100
AcDbEntity
100
AcDbPolyline
 90
2
 70
0
 10
16.8295999999999992
 20
1.7169000000000001
 30
0.0
 10
16.8295999999999992
 20
1.57667
 30
0.0
  0
LWPOLYLINE
  5
AE
  8
0
 62
1
420
16711680
370
-1
 48
1.0
  6
BYLAYER
100
AcDbEntity
100
AcDbPolyline
 90
2
 70
0
 10
16.8295999999999992
 20
3.6288499999999999
 30
0.0
 10
16.8295999999999992
 20
4.7656299999999998
 30
0.0
  0
LWPOLYLINE
  5
AF
  8
0
 62
256
370
-1
 48
1.0
  6
BYLAYER
100
AcDbEntity
100
AcDbPolyline
 90
2
 70
0
 10
8.7784300000000002
 20
2.9022899999999998
 30
0.0
 10
8.7784300000000002
 20
2.7316099999999999
 30
0.0
  0
LWPOLYLINE
  5
B0
  8
0
 62
256
370
-1
 48
1.0
  6
BYLAYER
100
AcDbEntity
100
AcDbPolyline
 90
2
 70
0
 10
8.7784300000000002
 20
2.5347200000000001
 30
0.0
 10
8.7784300000000002
 20
2.3378899999999998
 30
0.0
  0
LWPOLYLINE
  5
B1
  8
0
 62
256
370
-1
 48
1.0
  6
BYLAYER
100
AcDbEntity
100
AcDbPolyline
 90
2
 70
0
 10
8.7784300000000002
 20
2.14106
 30
0.0
 10
8.7784300000000002
 20
1.94417
 30
0.0
  0
LWPOLYLINE
  5
B2
  8
0
 62
1
420
16711680
370
-1
 48
1.0
  6
BYLAYER
100
AcDbEntity
100
AcDbPolyline
 90
2
 70
0
 10
16.8295999999999992
 20
1.7169000000000001
 30
0.0
 10
16.8295999999999992
 20
1.57667
 30
0.0
  0
LWPOLYLINE
  5
B3
  8
0
 62
1
420
16711680
370
-1
 48
1.0
  6
BYLAYER
100
AcDbEntity
100
AcDbPolyline
 90
2
 70
0
 10
11.7114999999999991
 20
2.8628999999999998
 30
0.0
 10
11.7114999999999991
 20
2.7119200000000001
 30
0.0
  0
LWPOLYLINE
  5
B4
  8
0
 62
1
420
16711680
370
-1
 48
1.0
  6
BYLAYER
100
AcDbEntity
100
AcDbPolyline
 90
2
 70
0
 10
11.7114999999999991
 20
2.5150800000000002
 30
0.0
 10
11.7114999999999991
 20
2.31819
 30
0.0
  0
LWPOLYLINE
  5
B5
  8
0
 62
1
420
16711680
370
-1
 48
1.0
  6
BYLAYER
100
AcDbEntity
100
AcDbPolyline
 90
2
 70
0
 10
11.7114999999999991
 20
2.1213600000000001
 30
0.0
 10
11.7114999999999991
 20
1.9244699999999999
 30
0.0
  0
LWPOLYLINE
  5
B6
  8
0
 62
1
420
16711680
370
-1
 48
1.0
  6
BYLAYER
100
AcDbEntity
100
AcDbPolyline
 90
2
 70
0
 10
11.7114999999999991
 20
1.7276499999999999
 30
0.0
 10
11.7114999999999991
 20
1.57667
 30
0.0
  0
LWPOLYLINE
  5
B7
  8
0
 62
256
370
-1
 48
1.0
  6
BYLAYER
100
AcDbEntity
100
AcDbPolyline
 90
2
 70
0
 10
8.7784300000000002
 20
1.74735
 30
0.0
 10
8.7784300000000002
 20
1.57667
 30
0.0
  0
LWPOLYLINE
  5
B8
  8
0
 62
256
370
-1
 48
1.0
  6
BYLAYER
100
AcDbEntity
100
AcDbPolyline
 90
2
 70
0
 10
8.7784300000000002
 20
2.9022899999999998
 30
0.0
 10
8.7784300000000002
 20
4.7656299999999998
 30
0.0
  0
LWPOLYLINE
  5
B9
  8
0
 62
1
420
16711680
370
-1
 48
1.0
  6
BYLAYER
100
AcDbEntity
100
AcDbPolyline
 90
2
 70
0
 10
11.7114999999999991
 20
2.8628999999999998
 30
0.0
 10
11.7114999999999991
 20
4.7656299999999998
 30
0.0
  0
LWPOLYLINE
  5
BA
  8
0
 62
1
420
16711680
370
-1
 48
1.0
  6
BYLAYER
100
AcDbEntity
100
AcDbPolyline
 90
3
 70
0
 10
3.4758100000000001
 20
2.8414199999999998
 30
0.0
 10
3.4758100000000001
 20
4.7656299999999998
 30
0.0
 10
0.509603
 20
4.7656299999999998
 30
0.0
  0
LWPOLYLINE
  5
BB
  8
0
 62
1
420
16711680
370
-1
 48
1.0
  6
BYLAYER
100
AcDbEntity
100
AcDbPolyline
 90
2
 70
0
 10
15.5678000000000001
 20
9.1296700000000008
 30
0.0
 10
15.5678000000000001
 20
9.34619
 30
0.0
  0
LWPOLYLINE
  5
BC
  8
0
 62
1
420
16711680
370
-1
 48
1.0
  6
BYLAYER
100
AcDbEntity
100
AcDbPolyline
 90
2
 70
0
 10
15.5678000000000001
 20
6.5518599999999996
 30
0.0
 10
15.5678000000000001
 20
6.33535
 30
0.0
  0
LWPOLYLINE
  5
BD
  8
0
 62
1
420
16711680
370
-1
 48
1.0
  6
BYLAYER
100
AcDbEntity
100
AcDbPolyline
 90
2
 70
0
 10
12.4114000000000004
 20
6.5518599999999996
 30
0.0
 10
12.4114000000000004
 20
6.33535
 30
0.0
  0
LWPOLYLINE
  5
BE
  8
0
 62
1
420
16711680
370
-1
 48
1.0
  6
BYLAYER
100
AcDbEntity
100
AcDbPolyline
 90
2
 70
0
 10
15.5678000000000001
 20
6.0400400000000003
 30
0.0
 10
15.5678000000000001
 20
5.84321
 30
0.0
  0
LWPOLYLINE
  5
BF
  8
0
 62
1
420
16711680
370
-1
 48
1.0
  6
BYLAYER
100
AcDbEntity
100
AcDbPolyline
 90
2
 70
0
 10
12.4114000000000004
 20
6.0400400000000003
 30
0.0
 10
12.4114000000000004
 20
5.84321
 30
0.0
  0
LWPOLYLINE
  5
C0
  8
0
 62
1
420
16711680
370
-1
 48
1.0
  6
BYLAYER
100
AcDbEntity
100
AcDbPolyline
 90
2
 70
0
 10
15.5678000000000001
 20
9.6414399999999993
 30
0.0
 10
15.5678000000000001
 20
9.8383199999999995
 30
0.0
  0
LWPOLYLINE
  5
C1
  8
0
 62
1
420
16711680
370
-1
 48
1.0
  6
BYLAYER
100
AcDbEntity
100
AcDbPolyline
 90
2
 70
0
 10
12.4115000000000002
 20
9.1296700000000008
 30
0.0
 10
12.4115000000000002
 20
9.34619
 30
0.0
  0
LWPOLYLINE
  5
C2
  8
0
 62
1
420
16711680
370
-1
 48
1.0
  6
BYLAYER
100
AcDbEntity
100
AcDbPolyline
 90
2
 70
0
 10
12.4115000000000002
 20
9.6414399999999993
 30
0.0
 10
12.4115000000000002
 20
9.8383199999999995
 30
0.0
  0
LWPOLYLINE
  5
C3
  8
0
 62
1
420
16711680
370
-1
 48
1.0
  6
BYLAYER
100
AcDbEntity
100
AcDbPolyline
 90
2
 70
0
 10
16.8295999999999992
 20
2.8414199999999998
 30
0.0
 10
16.8295999999999992
 20
2.7011699999999998
 30
0.0
  0
LWPOLYLINE
  5
C4
  8
0
 62
1
420
16711680
370
-1
 48
1.0
  6
BYLAYER
100
AcDbEntity
100
AcDbPolyline
 90
2
 70
0
 10
19.7036000000000016
 20
3.79053
 30
0.0
 10
19.7036000000000016
 20
3.5653800000000002
 30
0.0
  0
LWPOLYLINE
  5
C5
  8
0
 62
1
420
16711680
370
-1
 48
1.0
  6
BYLAYER
100
AcDbEntity
100
AcDbPolyline
 90
2
 70
0
 10
19.7823999999999991
 20
3.5653800000000002
 30
0.0
 10
19.7823999999999991
 20
3.79053
 30
0.0
  0
LWPOLYLINE
  5
C6
  8
0
 62
1
420
16711680
370
-1
 48
1.0
  6
BYLAYER
100
AcDbEntity
100
AcDbPolyline
 90
2
 70
0
 10
19.7036000000000016
 20
3.3438099999999999
 30
0.0
 10
19.7036000000000016
 20
3.1082399999999999
 30
0.0
  0
LWPOLYLINE
  5
C7
  8
0
 62
1
420
16711680
370
-1
 48
1.0
  6
BYLAYER
100
AcDbEntity
100
AcDbPolyline
 90
2
 70
0
 10
19.7823999999999991
 20
3.1082399999999999
 30
0.0
 10
19.7823999999999991
 20
3.3438099999999999
 30
0.0
  0
ENDSEC
  0
SECTION
  2
OBJECTS
  0
DICTIONARY
  5
C
100
AcDbDictionary
280
0
281
1
  3
ACAD_GROUP
350
D
  3
ACAD_LAYOUT
350
1A
  3
ACAD_MLINESTYLE
350
17
  3
ACAD_PLOTSETTINGS
350
19
  3
ACAD_PLOTSTYLENAME
350
E
  3
AcDbVariableDictionary
350
C8
  3
QCAD_OBJECTS
350
C9
  0
DICTIONARY
  5
D
100
AcDbDictionary
280
0
281
1
  0
ACDBDICTIONARYWDFLT
  5
E
100
AcDbDictionary
281
1
  3
Normal
350
F
100
AcDbDictionaryWithDefault
340
F
  0
ACDBPLACEHOLDER
  5
F
  0
DICTIONARY
  5
17
100
AcDbDictionary
280
0
281
1
  3
Standard
350
18
  0
MLINESTYLE
  5
18
100
AcDbMlineStyle
  2
STANDARD
 70
0
  3

 62
256
 51
90.0
 52
90.0
 71
2
 49
0.5
 62
256
  6
BYLAYER
 49
-0.5
 62
256
  6
BYLAYER
  0
DICTIONARY
  5
19
100
AcDbDictionary
280
0
281
1
  0
DICTIONARY
  5
1A
100
AcDbDictionary
281
1
  3
Layout1
350
1E
  3
Layout2
350
26
  3
Model
350
22
  0
LAYOUT
  5
1E
100
AcDbPlotSettings
  1

  2
none_device
  4

  6

 40
0.0
 41
0.0
 42
0.0
 43
0.0
 44
0.0
 45
0.0
 46
0.0
 47
0.0
 48
0.0
 49
0.0
140
0.0
141
0.0
142
1.0
143
1.0
 70
688
 72
0
 73
0
 74
5
  7

 75
16
147
1.0
148
0.0
149
0.0
100
AcDbLayout
  1
Layout1
 70
1
 71
1
 10
0.0
 20
0.0
 11
420.0
 21
297.0
 12
0.0
 22
0.0
 32
0.0
 14
100000000000000000000.0
 24
100000000000000000000.0
 34
100000000000000000000.0
 15
-100000000000000000000.0
 25
-100000000000000000000.0
 35
-100000000000000000000.0
146
0.0
 13
0.0
 23
0.0
 33
0.0
 16
1.0
 26
0.0
 36
0.0
 17
0.0
 27
1.0
 37
0.0
 76
0
330
1B
  0
LAYOUT
  5
22
100
AcDbPlotSettings
  1

  2
none_device
  4

  6

 40
0.0
 41
0.0
 42
0.0
 43
0.0
 44
0.0
 45
0.0
 46
0.0
 47
0.0
 48
0.0
 49
0.0
140
0.0
141
0.0
142
1.0
143
1.0
 70
1712
 72
0
 73
0
 74
0
  7

 75
0
147
1.0
148
0.0
149
0.0
100
AcDbLayout
  1
Model
 70
1
 71
0
 10
0.0
 20
0.0
 11
12.0
 21
9.0
 12
0.0
 22
0.0
 32
0.0
 14
0.0
 24
0.0
 34
0.0
 15
0.0
 25
0.0
 35
0.0
146
0.0
 13
0.0
 23
0.0
 33
0.0
 16
1.0
 26
0.0
 36
0.0
 17
0.0
 27
1.0
 37
0.0
 76
0
330
1F
  0
LAYOUT
  5
26
100
AcDbPlotSettings
  1

  2
none_device
  4

  6

 40
0.0
 41
0.0
 42
0.0
 43
0.0
 44
0.0
 45
0.0
 46
0.0
 47
0.0
 48
0.0
 49
0.0
140
0.0
141
0.0
142
1.0
143
1.0
 70
688
 72
0
 73
0
 74
5
  7

 75
16
147
1.0
148
0.0
149
0.0
100
AcDbLayout
  1
Layout2
 70
1
 71
2
 10
0.0
 20
0.0
 11
12.0
 21
9.0
 12
0.0
 22
0.0
 32
0.0
 14
0.0
 24
0.0
 34
0.0
 15
0.0
 25
0.0
 35
0.0
146
0.0
 13
0.0
 23
0.0
 33
0.0
 16
1.0
 26
0.0
 36
0.0
 17
0.0
 27
1.0
 37
0.0
 76
0
330
23
  0
DICTIONARY
  5
C8
100
AcDbDictionary
281
1
  3
DIMASSOC
350
CB
  3
HIDETEXT
350
CA
  0
DICTIONARYVAR
  5
CA
100
DictionaryVariables
280
0
  1
2
  0
DICTIONARYVAR
  5
CB
100
DictionaryVariables
280
0
  1
1
  0
DICTIONARY
  5
C9
100
AcDbDictionary
281
1
  3
ColorSettings/BackgroundColor
350
CC
  3
ColorSettings/ColorMode
350
CD
  3
Grid/DisplayGrid00
350
CE
  3
Grid/DisplayGrid01
350
CF
  3
Grid/DisplayGrid02
350
D0
  3
Grid/DisplayGrid03
350
D1
  3
Grid/GridSpacingX00
350
D2
  3
Grid/GridSpacingX01
350
D3
  3
Grid/GridSpacingX02
350
D4
  3
Grid/GridSpacingX03
350
D5
  3
Grid/GridSpacingY00
350
D6
  3
Grid/GridSpacingY01
350
D7
  3
Grid/GridSpacingY02
350
D8
  3
Grid/GridSpacingY03
350
D9
  3
Grid/IsometricGrid00
350
DA
  3
Grid/IsometricGrid01
350
DB
  3
Grid/IsometricGrid02
350
DC
  3
Grid/IsometricGrid03
350
DD
  3
Grid/IsometricProjection00
350
DE
  3
Grid/IsometricProjection01
350
DF
  3
Grid/IsometricProjection02
350
E0
  3
Grid/IsometricProjection03
350
E1
  3
Grid/MetaGridSpacingX00
350
E2
  3
Grid/MetaGridSpacingX01
350
E3
  3
Grid/MetaGridSpacingX02
350
E4
  3
Grid/MetaGridSpacingX03
350
E5
  3
Grid/MetaGridSpacingY00
350
E6
  3
Grid/MetaGridSpacingY01
350
E7
  3
Grid/MetaGridSpacingY02
350
E8
  3
Grid/MetaGridSpacingY03
350
E9
  3
MultiPageSettings/Columns
350
EA
  3
MultiPageSettings/GlueMarginsBottom
350
EB
  3
MultiPageSettings/GlueMarginsLeft
350
EC
  3
MultiPageSettings/GlueMarginsRight
350
ED
  3
MultiPageSettings/GlueMarginsTop
350
EE
  3
MultiPageSettings/PrintCropMarks
350
EF
  3
MultiPageSettings/Rows
350
F0
  3
PageSettings/OffsetX
350
F1
  3
PageSettings/OffsetY
350
F2
  3
PageSettings/PageOrientation
350
F3
  3
PageSettings/PaperHeight
350
F4
  3
PageSettings/PaperWidth
350
F5
  3
PageSettings/Scale
350
F6
  3
PageSettings/ShowPaperBorders
350
F7
  3
QCADVersion
350
F8
  3
UnitSettings/PaperUnit
350
F9
  0
XRECORD
  5
CC
330
C9
100
AcDbXrecord
280
1
1000
White
  0
XRECORD
  5
CD
330
C9
100
AcDbXrecord
280
1
1000
FullColor
  0
XRECORD
  5
CE
330
C9
100
AcDbXrecord
280
1
290
1
  0
XRECORD
  5
CF
330
C9
100
AcDbXrecord
280
1
290
1
  0
XRECORD
  5
D0
330
C9
100
AcDbXrecord
280
1
290
1
  0
XRECORD
  5
D1
330
C9
100
AcDbXrecord
280
1
290
1
  0
XRECORD
  5
D2
330
C9
100
AcDbXrecord
280
1
1000
auto
  0
XRECORD
  5
D3
330
C9
100
AcDbXrecord
280
1
1000
auto
  0
XRECORD
  5
D4
330
C9
100
AcDbXrecord
280
1
1000
auto
  0
XRECORD
  5
D5
330
C9
100
AcDbXrecord
280
1
1000
auto
  0
XRECORD
  5
D6
330
C9
100
AcDbXrecord
280
1
1000
auto
  0
XRECORD
  5
D7
330
C9
100
AcDbXrecord
280
1
1000
auto
  0
XRECORD
  5
D8
330
C9
100
AcDbXrecord
280
1
1000
auto
  0
XRECORD
  5
D9
330
C9
100
AcDbXrecord
280
1
1000
auto
  0
XRECORD
  5
DA
330
C9
100
AcDbXrecord
280
1
290
0
  0
XRECORD
  5
DB
330
C9
100
AcDbXrecord
280
1
290
0
  0
XRECORD
  5
DC
330
C9
100
AcDbXrecord
280
1
290
0
  0
XRECORD
  5
DD
330
C9
100
AcDbXrecord
280
1
290
0
  0
XRECORD
  5
DE
330
C9
100
AcDbXrecord
280
1
 90
0
  0
XRECORD
  5
DF
330
C9
100
AcDbXrecord
280
1
 90
0
  0
XRECORD
  5
E0
330
C9
100
AcDbXrecord
280
1
 90
0
  0
XRECORD
  5
E1
330
C9
100
AcDbXrecord
280
1
 90
0
  0
XRECORD
  5
E2
330
C9
100
AcDbXrecord
280
1
1000
auto
  0
XRECORD
  5
E3
330
C9
100
AcDbXrecord
280
1
1000
auto
  0
XRECORD
  5
E4
330
C9
100
AcDbXrecord
280
1
1000
auto
  0
XRECORD
  5
E5
330
C9
100
AcDbXrecord
280
1
1000
auto
  0
XRECORD
  5
E6
330
C9
100
AcDbXrecord
280
1
1000
auto
  0
XRECORD
  5
E7
330
C9
100
AcDbXrecord
280
1
1000
auto
  0
XRECORD
  5
E8
330
C9
100
AcDbXrecord
280
1
1000
auto
  0
XRECORD
  5
E9
330
C9
100
AcDbXrecord
280
1
1000
auto
  0
XRECORD
  5
EA
330
C9
100
AcDbXrecord
280
1
 90
1
  0
XRECORD
  5
EB
330
C9
100
AcDbXrecord
280
1
 40
0.5
  0
XRECORD
  5
EC
330
C9
100
AcDbXrecord
280
1
 40
0.5
  0
XRECORD
  5
ED
330
C9
100
AcDbXrecord
280
1
 40
0.5
  0
XRECORD
  5
EE
330
C9
100
AcDbXrecord
280
1
 40
0.5
  0
XRECORD
  5
EF
330
C9
100
AcDbXrecord
280
1
290
0
  0
XRECORD
  5
F0
330
C9
100
AcDbXrecord
280
1
 90
1
  0
XRECORD
  5
F1
330
C9
100
AcDbXrecord
280
1
 40
0.0
  0
XRECORD
  5
F2
330
C9
100
AcDbXrecord
280
1
 40
0.0
  0
XRECORD
  5
F3
330
C9
100
AcDbXrecord
280
1
1000
Portrait
  0
XRECORD
  5
F4
330
C9
100
AcDbXrecord
280
1
 40
297.0
  0
XRECORD
  5
F5
330
C9
100
AcDbXrecord
280
1
 40
210.0
  0
XRECORD
  5
F6
330
C9
100
AcDbXrecord
280
1
1000
1:1
  0
XRECORD
  5
F7
330
C9
100
AcDbXrecord
280
1
290
1
  0
XRECORD
  5
F8
330
C9
100
AcDbXrecord
280
1
1000
3.11.3
  0
XRECORD
  5
F9
330
C9
100
AcDbXrecord
280
1
 90
1
  0
ENDSEC
  0
EOF
